<?xml version="1.0" encoding="UTF-8" standalone="no"?>
<svg
   xmlns:dc="http://purl.org/dc/elements/1.1/"
   xmlns:cc="http://creativecommons.org/ns#"
   xmlns:rdf="http://www.w3.org/1999/02/22-rdf-syntax-ns#"
   xmlns:svg="http://www.w3.org/2000/svg"
   xmlns="http://www.w3.org/2000/svg"
   xmlns:sodipodi="http://sodipodi.sourceforge.net/DTD/sodipodi-0.dtd"
   xmlns:inkscape="http://www.inkscape.org/namespaces/inkscape"
   inkscape:version="1.0 (4035a4fb49, 2020-05-01)"
   sodipodi:docname="escudo_policia_tijuana.svg"
   version="1.1"
   id="svg2"
   xml:space="preserve"
   width="1026.4607"
   height="1080"
   viewBox="0 0 1026.4607 1080"><sodipodi:namedview
     inkscape:current-layer="svg2"
     inkscape:window-maximized="1"
     inkscape:window-y="-8"
     inkscape:window-x="1352"
     inkscape:cy="501.3804"
     inkscape:cx="115.52697"
     inkscape:zoom="0.4695172"
     fit-margin-bottom="0"
     fit-margin-right="0"
     fit-margin-left="0"
     fit-margin-top="0"
     showgrid="false"
     id="namedview3118"
     inkscape:window-height="1017"
     inkscape:window-width="1920"
     inkscape:pageshadow="2"
     inkscape:pageopacity="0"
     guidetolerance="10"
     gridtolerance="10"
     objecttolerance="10"
     borderopacity="1"
     bordercolor="#666666"
     pagecolor="#ffffff" /><metadata
     id="metadata8"><rdf:RDF><cc:Work
         rdf:about=""><dc:format>image/svg+xml</dc:format><dc:type
           rdf:resource="http://purl.org/dc/dcmitype/StillImage" /><dc:title></dc:title></cc:Work></rdf:RDF></metadata><defs
     id="defs6"><clipPath
   clipPathUnits="userSpaceOnUse"
   id="clipPath18"><path
     d="M 0,612 H 792 V 0 H 0 Z"
     id="path16" /></clipPath><clipPath
   clipPathUnits="userSpaceOnUse"
   id="clipPath5722"><path
     d="M 0,612 H 792 V 0 H 0 Z"
     id="path5720" /></clipPath>

</defs><g
     transform="matrix(10.301073,0,0,-10.301073,-3543.1488,3799.062)"
     id="g5716"><g
       clip-path="url(#clipPath5722)"
       id="g5718"><g
         transform="translate(383.2187,266.6182)"
         id="g5724"><path
           id="path5726"
           style="fill:#ffffff;fill-opacity:1;fill-rule:evenodd;stroke:none"
           d="M 0,0 1.667,3.68 4.672,2.319 4.386,1.694 2.203,2.685 1.833,1.87 3.869,0.946 3.587,0.323 1.551,1.245 1.102,0.255 3.362,-0.771 3.076,-1.396 Z" /></g><g
         transform="translate(388.5186,264.5791)"
         id="g5728"><path
           id="path5730"
           style="fill:#ffffff;fill-opacity:1;fill-rule:evenodd;stroke:none"
           d="M 0,0 0.125,0.726 2.878,2.901 0.842,3.258 0.961,3.935 4.155,3.378 4.045,2.75 1.186,0.489 3.67,0.056 3.552,-0.62 Z" /></g><g
         transform="translate(398.166,264.3691)"
         id="g5732"><path
           id="path5734"
           style="fill:#ffffff;fill-opacity:1;fill-rule:evenodd;stroke:none"
           d="m 0,0 -0.966,-0.08 -0.458,0.884 -1.779,-0.148 -0.29,-0.947 -0.95,-0.08 1.389,4.172 0.941,0.076 z M -1.775,1.461 -2.512,2.898 -2.985,1.361 Z" /></g><g
         transform="translate(413.8613,338.71)"
         id="g5736"><path
           id="path5738"
           style="fill:#a95e26;fill-opacity:1;fill-rule:evenodd;stroke:none"
           d="m 0,0 12.121,-0.021 c 0,0 0.018,-29.528 -0.001,-29.502 4.8,-7.683 16.469,-17.408 16.585,-17.506 l 0.666,-0.552 v 66.459 c 0,0.963 -0.324,1.288 -1.002,1.877 -0.25,0.219 -1.486,1.151 -3.054,2.334 -2.545,1.924 -6.032,4.555 -6.76,5.233 -0.869,0.817 -1.473,0.575 -1.912,0.395 L 16.549,28.681 C 16.059,28.487 7.859,25.169 7.326,24.9 L 7.111,24.791 C 6.687,24.586 6.287,24.391 6.019,23.903 5.594,23.124 -0.295,12.884 -0.855,11.913 l -5.979,-3.767 -6.074,20.52 0.429,0.482 c -0.252,0.41 -0.729,0.584 -1.369,0.58 -0.876,-0.003 -2.066,-0.337 -3.423,-0.852 -1.577,-0.57 -3.041,-1.185 -4.45,-1.815 -1.367,-0.611 -2.687,-1.241 -4.012,-1.866 -2.418,0.31 -4.603,0.444 -6.439,0.318 -0.683,-0.35 -1.102,-0.922 -1.439,-1.569 l -0.168,-0.247 -1.103,-1.38 c 0.509,-2.042 1.255,-4.062 2.274,-6.541 l -1.407,-7.406 -5.061,3.43 -1.487,2.348 -6.367,11.016 -10.768,4.162 -11.954,-9.082 0.181,-67.836 c 3.355,2.931 6.76,5.847 9.664,8.93 2.75,2.927 5.264,5.826 7.358,8.681 V 0.026 Z" /></g><g
         transform="translate(406.8672,360.9453)"
         id="g5740"><path
           id="path5742"
           style="fill:#36312f;fill-opacity:1;fill-rule:nonzero;stroke:none"
           d="m 0,0 c -0.158,0 -0.283,0.125 -0.283,0.28 0,0.155 0.125,0.28 0.283,0.28 0.153,0 0.279,-0.125 0.279,-0.28 C 0.279,0.125 0.153,0 0,0 m -12.011,0.096 v 0 c 0.351,-0.292 0.781,-0.461 1.252,-0.461 1.081,0 1.96,0.883 1.96,1.966 0,0.276 -0.062,0.548 -0.18,0.805 l 1.104,0.84 c 0.123,-0.359 0.189,-0.734 0.189,-1.123 0,-1.915 -1.56,-3.478 -3.48,-3.478 -0.709,0 -1.373,0.218 -1.948,0.612 z m 0.765,-2.109 c -0.973,0 -1.884,0.32 -2.645,0.92 l -0.213,0.169 0.216,0.164 1.393,1.057 0.115,0.085 3.21,2.444 0.137,0.106 1.394,1.056 0.215,0.166 0.104,-0.249 c 0.224,-0.525 0.333,-1.081 0.333,-1.659 0,-2.349 -1.908,-4.259 -4.259,-4.259 m 47.144,-10.893 v 0 c -0.63,0.306 -1.664,0.867 -2.244,1.485 v 3.292 c 0,0.242 -0.025,0.434 -0.076,0.6 0.051,0.066 0.082,0.109 0.086,0.117 l -0.193,0.15 c -0.135,0.247 -0.34,0.452 -0.617,0.72 -0.206,0.199 -1.235,1.066 -2.54,2.165 -2.115,1.781 -5.013,4.22 -5.617,4.842 -0.199,0.203 -0.744,0.647 -1.613,0.461 -0.582,-0.125 -4.436,-1.232 -4.879,-1.461 -0.451,-0.241 -1.221,-0.874 -1.672,-1.38 l -4.809,-5.323 -10.195,-10.475 -0.98,3.332 5.547,3.569 0.076,0.052 0.049,0.081 c 0.273,0.467 6.689,11.459 7.152,12.295 0.14,0.253 0.343,0.36 0.752,0.553 l 0.236,0.116 c 0.444,0.223 8.588,3.485 9.448,3.814 l 0.101,0.042 c 0.379,0.15 0.584,0.234 1.098,-0.239 0.779,-0.721 4.255,-3.304 7.045,-5.378 1.538,-1.147 2.865,-2.136 3.105,-2.339 0.61,-0.525 0.74,-0.656 0.74,-1.27 z m 0,-13.175 v 0 c -0.63,0.305 -1.664,0.871 -2.244,1.488 v 3.15 c 0.002,0.003 0.01,0.014 0.01,0.014 l -0.01,0.01 v 9.237 c 0.744,-0.613 1.744,-1.112 2.244,-1.345 z m 0,-14.084 v 0 c -0.63,0.306 -1.664,0.869 -2.244,1.486 v 3.219 c 0.002,0.004 0.01,0.015 0.01,0.017 l -0.01,0.011 v 10.076 c 0.744,-0.616 1.744,-1.115 2.244,-1.347 z m 0,-14.227 v 0 c -0.63,0.305 -1.664,0.868 -2.244,1.488 v 2.867 c 0.002,0.01 0.01,0.014 0.01,0.019 l -0.01,0.006 v 10.571 c 0.744,-0.618 1.744,-1.116 2.244,-1.348 z m 0,-14.506 v 0 c -0.517,0.437 -1.289,1.099 -2.244,1.941 v 13.287 c 0.744,-0.612 1.744,-1.112 2.244,-1.342 z m -8.901,61.394 v 0 5.193 c 0.945,-0.804 2,-1.691 2.956,-2.496 1.244,-1.046 2.32,-1.95 2.514,-2.139 0.21,-0.205 0.355,-0.349 0.455,-0.489 -0.492,-0.561 -1.539,-1.665 -2.848,-2.493 -2.053,1.127 -3.053,2.418 -3.061,2.432 z m 6.099,-4.109 v 0 l -0.01,-0.009 c 0.004,-0.004 0.006,-0.007 0.01,-0.01 v -9.612 c -0.373,-0.446 -1.528,-1.753 -3.022,-2.7 -2.053,1.128 -3.053,2.42 -3.061,2.432 l -0.016,-0.009 v 8.486 c 0.001,0.004 0.008,0.011 0.015,0.013 l -0.015,0.01 v 4.689 c 0.509,-0.527 1.47,-1.392 2.953,-2.181 l 0.142,-0.074 0.133,0.083 c 1.254,0.761 2.272,1.757 2.867,2.41 0,-0.016 0.004,-0.028 0.004,-0.044 z m 0,-13.176 v 0 l -0.01,-0.007 c 0.004,-0.002 0.006,-0.007 0.01,-0.013 V -35.26 c -0.373,-0.447 -1.528,-1.754 -3.022,-2.699 -2.053,1.127 -3.053,2.419 -3.061,2.432 l -0.016,-0.008 v 13.197 c 0.509,-0.528 1.47,-1.392 2.953,-2.181 l 0.142,-0.074 0.133,0.083 c 1.255,0.76 2.273,1.76 2.871,2.41 z m 0,-14.087 v 0 l -0.01,-0.008 c 0.004,-0.003 0.006,-0.007 0.01,-0.009 v -10.944 c -0.373,-0.444 -1.528,-1.751 -3.022,-2.697 -2.056,1.125 -3.053,2.421 -3.061,2.434 l -0.016,-0.013 v 13.758 c 0.509,-0.527 1.47,-1.391 2.953,-2.177 l 0.142,-0.077 0.133,0.083 c 1.255,0.762 2.273,1.759 2.871,2.411 z m 0,-14.224 v 0 l -0.01,-0.007 c 0.004,-0.005 0.006,-0.008 0.01,-0.011 v -13.341 c -1.737,1.546 -3.92,3.574 -6.099,5.789 v 9.741 c 0.509,-0.528 1.47,-1.393 2.953,-2.183 l 0.142,-0.072 0.133,0.08 c 1.255,0.764 2.273,1.762 2.871,2.413 z m -6.657,40.268 v 0 c -0.378,-0.445 -1.56,-1.756 -3.091,-2.703 -2.104,1.125 -3.127,2.423 -3.135,2.439 l -0.012,-0.01 v 12.637 c 1.211,0.366 2.66,0.775 3.002,0.848 0.596,0.129 0.961,-0.171 1.09,-0.302 0.306,-0.315 1.125,-1.034 2.146,-1.906 z m 0,-15.413 v 0 c -0.239,-0.323 -1.326,-1.75 -2.775,-2.765 l -1.221,1.231 v 12.338 h -2.242 v 3.522 c 0.516,-0.526 1.498,-1.397 3.023,-2.19 l 0.139,-0.073 0.131,0.079 c 1.289,0.768 2.339,1.774 2.945,2.425 z m 0,-13.877 v 0 c -0.239,-0.321 -1.326,-1.749 -2.775,-2.763 -1.478,0.9 -2.336,1.889 -2.62,2.254 v 11.949 h 0.02 1.379 v 0.184 l 1.237,-1.183 0.15,0.1 c 1.143,0.765 2.072,1.77 2.609,2.427 z m 0,-17.972 v 0 c -1.945,2.008 -3.853,4.145 -5.395,6.212 v 10.395 c 0.492,-0.531 1.304,-1.286 2.487,-1.976 l 0.149,-0.091 0.15,0.098 c 1.143,0.765 2.072,1.774 2.609,2.427 z m -5.959,17.321 v 0 l -0.021,-0.016 c 0,-0.003 0.015,-0.022 0.021,-0.031 v -10.284 l -0.819,1.208 v 21.214 h 0.819 z m -0.841,34.548 v 0 c -0.813,-0.402 -3.819,-1.799 -6.797,-2.143 v 3.528 l 4.109,4.55 c 0.408,0.461 1.116,1.048 1.516,1.258 0.113,0.057 0.576,0.209 1.172,0.395 z m 0,-9.216 v 0 h -6.797 v 6.509 c 2.869,0.315 5.695,1.555 6.797,2.082 z m -65.45,8.591 v 0 c 1.1,-0.527 3.923,-1.767 6.795,-2.082 v -6.509 h -6.795 z m -0.045,-43.079 v 0 l -0.795,-1.175 v 10.284 c 0.005,0.009 0.018,0.028 0.021,0.031 l -0.021,0.016 v 12.091 h 0.795 z m -1.357,9.298 v 0 c -0.286,-0.365 -1.144,-1.354 -2.625,-2.254 -1.444,1.014 -2.536,2.442 -2.771,2.763 v 7.368 c 2.884,0.575 4.142,1.633 4.196,3.539 0.003,0.165 -0.001,0.333 -0.014,0.496 0.017,0.012 0.033,0.025 0.049,0.037 h 1.165 z m 0,-11.251 v 0 c -1.544,-2.067 -3.454,-4.204 -5.396,-6.212 v 17.065 c 0.537,-0.653 1.464,-1.662 2.608,-2.427 l 0.145,-0.098 0.155,0.091 c 1.178,0.69 1.992,1.445 2.488,1.976 z m -5.954,46.378 v 0 l -0.018,0.008 c -0.01,-0.014 -1.007,-1.305 -3.061,-2.432 -1.307,0.828 -2.358,1.932 -2.845,2.493 0.097,0.14 0.239,0.284 0.453,0.489 0.194,0.189 1.268,1.093 2.512,2.139 0.956,0.805 2.015,1.692 2.959,2.496 z m 0,-5.508 v 0 l -0.013,-0.01 c 0.002,-0.002 0.01,-0.009 0.013,-0.013 v -8.486 l -0.018,0.009 c -0.01,-0.012 -1.007,-1.304 -3.061,-2.432 -1.499,0.947 -2.649,2.254 -3.022,2.7 v 9.612 l 0.012,0.01 -0.012,0.009 v 3.528 c 0.598,-0.653 1.616,-1.649 2.87,-2.41 l 0.137,-0.083 0.141,0.074 c 1.482,0.789 2.443,1.654 2.953,2.181 z m 0,-19.7 v 0 c -0.646,-0.197 -1.255,-0.344 -1.755,-0.459 -0.98,-0.227 -1.429,-0.331 -1.517,-0.677 -0.022,-0.09 -0.035,-0.265 0.132,-0.441 0.394,-0.41 1.768,-0.695 3.14,-0.551 v -0.664 l -0.018,-0.023 c -0.01,-0.013 -1.007,-1.305 -3.061,-2.432 -1.499,0.945 -2.649,2.252 -3.022,2.699 v 10.451 c 0.005,0.006 0.007,0.011 0.012,0.013 l -0.012,0.007 v 2.689 c 0.598,-0.65 1.616,-1.65 2.87,-2.41 l 0.137,-0.083 0.141,0.074 c 1.482,0.789 2.443,1.653 2.953,2.181 z m 0,-17.401 v 0 l -0.018,0.013 c -0.007,-0.013 -1.007,-1.309 -3.057,-2.434 -1.5,0.946 -2.653,2.253 -3.026,2.697 v 10.944 2.778 c 0.598,-0.652 1.616,-1.649 2.87,-2.411 l 0.137,-0.083 0.141,0.077 c 1.482,0.786 2.443,1.65 2.953,2.177 z m 0,-10.557 v 0 c -2.183,-2.215 -4.365,-4.243 -6.101,-5.789 v 13.341 c 0.005,0.003 0.007,0.006 0.012,0.011 l -0.012,0.007 v 2.409 c 0.598,-0.651 1.616,-1.649 2.87,-2.413 l 0.137,-0.08 0.141,0.072 c 1.482,0.79 2.443,1.655 2.953,2.183 z m 6.784,47.574 v 0 c -0.014,-0.016 -1.031,-1.314 -3.136,-2.439 -1.532,0.947 -2.713,2.258 -3.09,2.703 v 11.003 c 1.018,0.872 1.837,1.591 2.138,1.906 0.132,0.131 0.502,0.431 1.097,0.302 0.342,-0.073 1.788,-0.482 3.001,-0.848 v -12.637 z m -5.049,-14.466 v 0 c -0.297,-0.801 -0.096,-1.534 0.124,-2.19 -0.683,0.686 -1.155,1.307 -1.301,1.507 v 14.567 c 0.603,-0.651 1.651,-1.657 2.945,-2.425 l 0.131,-0.079 0.136,0.073 c 1.527,0.793 2.509,1.664 3.024,2.19 v -3.522 h -2.29 v -8.016 c -0.946,-0.174 -2.242,-0.678 -2.769,-2.105 m -1.177,-4.962 v 0 3.37 c 0.37,-0.451 0.926,-1.066 1.608,-1.655 0.037,-0.245 0.024,-0.472 -0.076,-0.678 -0.194,-0.388 -0.698,-0.728 -1.532,-1.037 m -0.321,-0.708 c 1.105,0.384 2.076,0.936 2.354,1.495 0.024,0.053 0.043,0.106 0.062,0.159 0.119,0.402 0.069,0.837 0.017,1.107 -0.058,0.236 -0.134,0.47 -0.216,0.704 -0.22,0.647 -0.451,1.314 -0.192,2.011 0.411,1.113 1.441,1.549 2.242,1.719 v -1.989 c -0.086,-0.053 -0.16,-0.116 -0.225,-0.189 -0.376,-0.436 -0.284,-1.103 -0.186,-1.802 0.021,-0.145 0.042,-0.292 0.058,-0.437 l -0.003,-0.003 c 0.097,-0.638 0.036,-0.964 0.031,-0.986 -0.1,-1.071 -0.7,-2.114 -3.554,-2.723 -0.021,-0.005 -0.368,-0.072 -0.39,-0.076 l -0.235,-0.034 c -1.207,-0.144 -2.272,0.102 -2.624,0.297 0.213,0.078 0.621,0.178 0.997,0.262 0.467,0.11 1.266,0.305 1.864,0.485 m -6.817,25.703 v 0 c -0.053,-0.166 -0.079,-0.358 -0.079,-0.6 v -3.292 c -0.577,-0.618 -1.612,-1.179 -2.244,-1.485 v 9.821 c 0,0.614 0.131,0.745 0.743,1.27 0.236,0.203 1.567,1.192 3.105,2.339 2.79,2.074 6.264,4.657 7.042,5.378 0.51,0.473 0.719,0.389 1.096,0.239 l 0.104,-0.042 c 0.856,-0.329 9.004,-3.591 9.445,-3.814 l 0.236,-0.116 c 0.413,-0.193 0.613,-0.3 0.755,-0.553 0.243,-0.434 2.096,-3.622 3.855,-6.644 -0.916,-0.441 -1.733,-1.026 -2.368,-1.803 -0.035,-0.04 -0.062,-0.082 -0.094,-0.126 -0.994,1.1 -4.556,5.042 -4.556,5.042 -0.453,0.506 -1.215,1.139 -1.669,1.38 -0.444,0.229 -4.298,1.336 -4.879,1.461 -0.869,0.186 -1.42,-0.258 -1.612,-0.461 -0.607,-0.622 -3.504,-3.061 -5.622,-4.842 -1.303,-1.099 -2.333,-1.966 -2.537,-2.165 -0.281,-0.268 -0.482,-0.473 -0.613,-0.72 -0.061,-0.119 -0.087,-0.201 -0.108,-0.267 m -0.079,-13.89 v 0 l -0.012,-0.01 c 0,0 0.006,-0.011 0.012,-0.014 v -3.15 c -0.577,-0.617 -1.612,-1.183 -2.244,-1.488 v 12.554 c 0.501,0.233 1.498,0.732 2.244,1.345 z m 0,-14.041 v -3.219 c -0.577,-0.617 -1.612,-1.18 -2.244,-1.486 v 13.462 c 0.501,0.232 1.498,0.731 2.244,1.347 z m 0,-14.552 v 0 l -0.012,-0.006 c 0,-0.005 0.006,-0.009 0.012,-0.019 v -2.867 c -0.577,-0.62 -1.612,-1.183 -2.244,-1.488 v 13.603 c 0.501,0.232 1.498,0.73 2.244,1.348 z m 0,-16.945 v 0 c -0.954,-0.842 -1.726,-1.504 -2.244,-1.941 v 13.886 c 0.501,0.23 1.498,0.73 2.244,1.342 z m 20.743,56.598 v 0 c -2.956,0.357 -5.922,1.734 -6.728,2.134 v 7.588 c 0.595,-0.186 1.058,-0.338 1.17,-0.395 0.397,-0.21 1.109,-0.797 1.515,-1.258 l 4.11,-4.55 v -1.661 c -0.197,-0.616 -0.22,-1.228 -0.067,-1.858 m 15.792,5.363 v 0 c -0.119,-0.678 -0.076,-1.347 0.034,-1.941 -3.006,0.455 -8.692,0.824 -10.602,-0.801 -0.439,-0.375 -0.667,-0.837 -0.667,-1.372 0,-1.713 1.325,-2.258 2.609,-2.787 1.326,-0.548 2.579,-1.063 2.579,-2.821 0,-1.697 -1.19,-3.355 -2.437,-4.628 v 1.905 h -2.949 c 0.426,0.672 0.714,1.456 0.714,2.351 0,1.402 -1.207,2.08 -2.372,2.736 -0.929,0.526 -1.809,1.022 -2.081,1.837 -0.373,1.121 -0.107,2.179 0.837,3.331 3.444,4.192 12.865,2.485 14.335,2.19 m -4.18,4.975 v 0 c 0.097,0.134 0.2,0.269 0.307,0.4 l 0.184,-0.342 c -0.026,-2.108 0.896,-2.933 1.68,-3.252 1.154,-0.466 2.611,-0.051 3.342,0.639 0.065,-0.025 0.124,-0.04 0.183,-0.058 -0.27,-0.184 -0.52,-0.401 -0.739,-0.653 -0.363,-0.195 -1.379,-0.589 -3.022,-0.064 l -0.496,0.158 0.246,-0.458 c 0.072,-0.137 0.142,-0.272 0.211,-0.408 -0.174,0.024 -0.355,0.042 -0.541,0.063 -0.861,1.908 -1.506,3.639 -1.355,3.975 m 2.602,-2.188 v 0 c 0.736,-0.236 1.275,0.174 1.523,0.496 l 1.158,-0.509 c -0.597,-0.615 -1.94,-1.013 -2.955,-0.601 -0.871,0.352 -1.351,1.218 -1.409,2.507 l 0.694,-0.301 c -0.005,-0.159 0.009,-1.284 0.989,-1.592 m 2.772,1.008 v 0 c 0.294,-0.091 0.517,-0.166 0.62,-0.208 0.231,-0.095 0.291,-0.243 0.28,-0.314 -0.017,-0.068 -0.105,-0.078 -0.154,-0.078 -0.216,0 -0.253,0.166 -0.256,0.261 l -0.004,0.136 c 0,0.005 -0.127,0.054 -0.127,0.054 z m -3.801,1.469 v 0 l -0.11,-0.322 4,-1.637 c 0.055,-0.252 0.244,-0.529 0.657,-0.529 0.293,0 0.51,0.163 0.563,0.416 0.053,0.26 -0.092,0.6 -0.526,0.784 -0.299,0.124 -1.499,0.482 -2.594,0.801 1.288,-0.319 2.572,-0.632 3.023,-0.734 0.221,-0.051 0.386,-0.235 0.449,-0.495 0.051,-0.194 0.025,-0.386 -0.055,-0.544 -0.255,-0.096 -0.511,-0.204 -0.761,-0.334 -0.197,0.019 -0.42,0.078 -0.668,0.183 l -0.137,0.058 c -0.207,0.1 -0.176,0.304 -0.176,0.304 l -4.328,1.869 0.001,0.057 -0.023,0.048 -0.152,0.283 c 0.221,-0.054 0.509,-0.126 0.837,-0.208 m -0.444,1.06 v 0 c 0.8,-0.175 4.562,-0.993 5.6,-1.22 0.031,-0.208 0.179,-0.406 0.459,-0.578 0.519,-0.33 1.07,-0.612 1.097,-0.623 l 0.11,-0.057 0.119,0.047 c 0.244,0.099 1.469,0.597 1.777,0.903 0.12,0.122 0.181,0.28 0.162,0.44 -0.013,0.11 -0.064,0.2 -0.121,0.285 1.689,0.829 8.782,4.308 11.035,5.479 L -6.033,5.758 C -6.176,5.68 -6.5,5.512 -6.5,5.512 l -9.81,-5.188 c -0.253,-0.136 -1.084,-0.63 -1.139,-1.286 -0.033,-0.384 0.127,-0.794 0.431,-1.128 0.318,-0.345 0.743,-0.55 1.135,-0.55 0.779,0 1.2,0.48 1.388,0.881 0.509,-0.362 1.068,-0.622 1.659,-0.784 -0.761,-0.051 -1.302,-0.183 -1.786,-0.305 -0.503,-0.13 -0.936,-0.237 -1.545,-0.237 -0.613,0 -0.984,0.46 -1.346,0.904 -0.342,0.422 -0.726,0.9 -1.303,0.721 l -0.456,-0.14 c -0.231,-0.067 -0.477,-0.138 -0.73,-0.22 0.021,0.153 0.016,0.316 -0.024,0.474 -0.102,0.417 -0.388,0.717 -0.766,0.804 -0.856,0.192 -4.721,1.149 -5.928,1.45 0.153,0.175 0.288,0.324 0.378,0.42 m 1.295,1.524 v 0 c 0.567,0.082 1.289,0.091 2.059,0.072 l 0.587,-0.631 -1.634,0.204 -0.291,0.036 0.062,-0.289 0.178,-0.832 -1.996,0.432 c 0.248,0.361 0.832,0.969 1.035,1.008 m 4.111,-2.125 v 0 l -2.699,0.586 -0.157,0.73 1.841,-0.231 z m 0.256,2.047 v 0 l 0.861,-2.244 0.187,-0.487 0.204,0.482 0.859,2.043 0.058,0.034 c 0.449,0.236 0.91,0.467 1.37,0.694 l -1.585,-2.484 0.304,-0.28 6.862,5.147 c 0.454,0.169 0.896,0.33 1.304,0.473 l -7.121,-5.119 c -0.215,-0.107 -0.347,-0.168 -0.361,-0.175 l -0.445,-0.221 0.419,-0.266 c 0.077,-0.052 0.158,-0.131 0.182,-0.178 -0.168,-0.156 -0.917,-0.502 -1.465,-0.727 -0.189,0.097 -0.578,0.305 -0.939,0.539 -0.127,0.077 -0.171,0.135 -0.192,0.164 l 0.323,0.322 -0.361,0.077 -2.178,2.331 c 0.574,-0.031 1.153,-0.073 1.714,-0.125 m 0.989,-0.095 v 0 l -0.038,-0.024 -0.371,-0.22 -0.114,0.294 c 0.178,-0.016 0.353,-0.032 0.523,-0.05 m 0.397,-0.748 v 0 l -0.317,-0.762 -0.334,0.866 0.301,0.184 z m 0.283,0.677 v 0 l -0.113,-0.273 -0.36,0.3 -0.033,0.025 c 0.175,-0.017 0.347,-0.036 0.506,-0.052 m 3.059,0.604 v 0 -0.305 l -1.795,-1.345 0.567,0.889 0.008,-0.013 z m -0.468,0.431 v 0 c 1.153,0.544 2.316,1.039 3.421,1.48 l -2.536,-1.9 v 0.756 l -0.321,-0.205 -0.81,-0.514 z m 5.747,1.036 v 0 l -0.228,-0.455 c -1.449,-0.719 -2.966,-1.465 -4.2,-2.07 l 3.659,2.626 0.004,-0.133 z m 1.092,1.376 v 0 l 1.81,0.392 -0.217,-0.775 C -8.667,5.332 -9.451,4.941 -10.276,4.533 l 0.139,0.277 0.16,0.32 -0.357,-0.015 -0.678,-0.029 1.422,1.024 z m 2.94,0.953 v 0 C -6.33,6.952 -6.096,6.816 -5.965,6.708 -6.262,6.55 -6.795,6.272 -7.479,5.93 L -7.273,6.671 -7.18,7.007 -7.52,6.934 -8.5,6.719 c 0.76,0.228 1.389,0.384 1.859,0.289 m 1.153,-3.086 v 0 C -5.455,1.895 -5.902,0.456 -6.531,-0.557 l -0.05,-0.084 c -1.171,-1.819 -2.911,-2.238 -3.314,-2.313 -0.261,0.112 -0.544,0.203 -0.852,0.27 2.591,0.341 4.604,2.561 4.604,5.246 0,0.684 -0.132,1.345 -0.382,1.971 l 0.318,0.707 0.197,0.445 z m 1.04,-3.495 -0.038,-0.234 -0.221,-2.053 -1.343,0.953 -0.077,0.238 c 0.502,0.831 0.885,1.917 1.012,3.321 z m 0.282,-0.989 v 0 l 0.365,-1.236 c -0.163,-0.078 -0.327,-0.156 -0.5,-0.241 z m -1.658,-1.019 v 0 l 1.006,-0.715 c -0.216,-0.11 -0.436,-0.225 -0.657,-0.344 z m 3.176,-0.315 v 0 c 1.387,0.584 1.761,1.754 1.992,2.409 0.281,0.793 0.877,0.374 0.877,0.374 L 0.286,0.93 C 0.736,1.211 1.254,1.812 1.402,1.774 1.408,1.772 1.922,1.547 1.773,1.216 1.669,0.978 0.95,0.396 0.898,0.219 0.736,-0.334 0.373,-0.982 -0.133,-1.434 -0.98,-2.057 -0.291,-2.59 -0.12,-2.673 c 0.653,-0.323 1.169,-0.25 1.669,-0.18 l 0.031,0.005 c 0.537,0.075 1.031,-0.037 1.127,-0.13 -0.002,-0.006 -0.002,-0.006 -0.01,-0.016 -0.203,-0.246 -1.828,-0.485 -2.98,-0.184 -1.053,0.279 -2.229,0.685 -3.977,-1.013 -0.297,-0.284 -0.582,-0.594 -0.892,-0.921 -1.526,-1.613 -3.25,-3.439 -6.014,-3.439 -1.316,0 -2.739,0.438 -4.25,0.902 -1.694,0.518 -3.435,1.049 -5.054,0.921 0.449,0.433 0.95,0.763 1.512,0.974 1.359,0.517 3.081,0.342 4.725,-0.478 2.563,-1.282 4.495,0.159 5.77,1.112 l 0.172,0.127 c 1.674,1.18 4.105,2.451 5.643,3.097 M -4.07,-4.795 v 0 c 0.067,0.067 0.134,0.138 0.199,0.202 0.165,0.161 0.314,0.297 0.461,0.419 l -0.085,-0.883 z m 1.82,-2.262 v 0 l -0.014,0.003 -0.176,-1.521 -1.308,0.72 -0.588,1.779 0.013,0.054 -0.031,0.005 -0.232,0.689 c 0.066,0.072 0.138,0.146 0.203,0.212 l 0.979,-0.447 0.267,-0.124 0.026,0.294 0.097,0.934 z m 0.192,-1.877 v 0 l 0.103,0.884 0.769,-2.622 H -1.19 l -0.188,-1.42 -1.216,0.797 -0.01,-0.016 -0.464,1.402 0.004,0.033 -0.014,0.004 -0.475,1.429 1.186,-0.654 0.271,-0.149 z m 1.05,-3.544 v 0 l 0.112,0.83 0.779,-2.645 -0.203,-1.311 -1.092,0.854 -0.037,-0.048 -0.354,1.061 0.004,0.011 h -0.008 l -0.593,1.801 1.072,-0.701 0.278,-0.186 z m 1.27,-7.485 v 0 l -0.348,1.048 0.832,-0.77 0.282,-0.26 0.064,0.383 0.132,0.728 0.333,-1.129 z m -28.496,1.348 v 0 l -0.258,-1.348 h -3.097 c 0.779,0.768 1.564,1.693 2.108,2.711 z m 1.277,-1.348 v 0 h -0.746 l 2.42,12.703 c 0.184,-0.015 0.367,-0.035 0.545,-0.052 -0.276,-1.575 -1.643,-9.379 -2.219,-12.651 m 3.232,9.201 v 0 l 0.125,-0.213 0.19,0.163 1.536,1.316 -0.289,-1.686 -1.679,-1.435 -1.111,1.66 0.303,1.723 z m 4.631,3.314 v 0 l -1.351,-1.792 -0.631,1.652 -0.045,-0.016 0.026,0.151 c 0.019,0.025 0.035,0.054 0.053,0.08 0.625,0.131 1.289,0.128 1.969,0.047 z m 1.495,-7.444 v 0 l -2.033,1.818 0.308,1.793 1.725,-1.728 0.133,-0.133 0.146,0.118 1.94,1.546 0.099,-1.709 z m -0.17,-2.308 v 0 l -2.257,1.827 0.313,1.808 1.961,-1.751 0.125,-0.116 0.139,0.101 2.233,1.643 0.105,-1.727 z m -2.651,-0.464 v 0 l 0.315,1.818 1.969,-1.595 h -2.213 v -0.274 z m -0.079,-0.465 v 0 l 0.15,-0.109 v -1.725 h -0.464 z m -4.559,-1.772 v 0 l 0.055,-0.062 h -1.525 l 0.25,1.431 z m 1.586,1.07 v 0 l -0.195,-1.132 h -1.146 l 0.046,0.04 z m 0.633,-1.132 v 0 h -0.402 l 0.096,0.562 z m -1.886,2.347 v 0 l 0.137,-0.166 0.16,0.136 1.353,1.15 -0.288,-1.691 -1.519,-1.281 -1.304,1.464 0.314,1.797 z m 0.331,2.284 v 0 l 0.134,-0.181 0.171,0.146 1.414,1.202 -0.288,-1.689 -1.57,-1.332 -1.242,1.53 0.312,1.775 z m 1.83,1.816 v 0 l -1.622,-1.385 -1.177,1.594 0.31,1.753 0.992,-1.494 0.134,-0.197 0.181,0.155 1.473,1.261 z m 0.953,-1.64 v 0 l 0.139,-0.303 0.212,0.256 1.052,1.258 -0.343,-2.011 -1.278,-1.438 -0.72,1.46 0.354,2.066 z m 0.017,4.801 v 0 l 0.348,2.027 0.539,-1.417 0.135,-0.356 0.23,0.304 1.092,1.446 -0.328,-1.933 -1.328,-1.676 -0.669,1.61 z m -0.17,1.509 v 0 l -0.183,-0.158 c 0.078,0.191 0.164,0.377 0.252,0.551 z m 0.04,-2.254 v 0 l 0.566,-1.348 0.137,-0.333 0.221,0.28 1.071,1.355 -0.338,-1.972 -1.302,-1.56 -0.701,1.547 z m 0.56,-8.438 v 0 l -0.074,-0.425 h -0.329 z m -0.983,-0.425 v 0 h -0.217 l -0.667,1.234 0.055,0.322 0.034,0.026 -0.024,0.027 0.294,1.719 0.609,-1.225 0.137,-0.275 0.209,0.231 1.03,1.161 -0.349,-2.049 z m 7.026,4.061 v 0 l 0.088,-1.539 h -2.339 z m 1.262,1.354 v 0 l -1.008,1.495 -0.112,1.944 0.801,-1.213 0.186,-0.282 0.169,0.291 0.756,1.271 0.116,-2.015 z m -0.247,-2.893 v 0 h -0.505 l -0.049,0.799 z m 0.399,0.16 v 0 l -0.998,1.447 -0.115,1.958 0.793,-1.174 0.183,-0.273 0.17,0.28 0.764,1.249 0.116,-2.037 z m 0.957,0.731 v 0 l 0.05,-0.891 h -0.611 z m 2.299,5.63 v 0 l -2.306,1.82 -0.011,0.157 c 0.546,-0.103 1.083,-0.167 1.602,-0.167 0.908,0 1.715,0.184 2.437,0.485 l 0.043,-0.176 z m 2.285,-0.087 v 0 l -1.951,-2.064 -2.516,1.827 -0.094,1.584 2.177,-1.717 0.161,-0.129 0.131,0.158 1.694,2.033 z m 1.793,1.742 v 0 l -0.352,-1.639 -1.238,0.875 -0.371,1.581 c 0.455,0.223 0.883,0.491 1.276,0.786 z m 4.006,-5.822 v 0 l -1.597,1.297 -0.011,-0.013 -1.222,2.855 1.475,-1.103 0.277,-0.209 0.056,0.343 0.176,1.105 0.984,-2.972 z m 1.375,-3.567 v 0 l -1.448,1.267 -1.193,2.787 1.302,-1.06 0.304,-0.242 0.04,0.388 0.083,0.76 0.943,-2.862 z m -0.348,-1.309 v 0 l -0.721,1.682 1.459,-1.278 0.02,0.443 0.008,0.332 0.388,-1.179 z m -4.648,1.74 v 0 l 2.016,-1.027 0.24,-0.123 0.06,0.266 0.51,2.336 0.367,-0.854 -0.008,-0.006 0.014,-0.013 0.99,-2.319 H -5.99 l 0.002,1.556 z m 1.103,1.579 v 0 l 0.249,-0.138 0.06,0.276 0.439,2.016 0.69,-1.613 -0.576,-2.648 -1.965,0.999 v 0.311 h -0.227 l -0.418,1.768 z m -1.876,1.524 v 0 l -0.468,1.967 1.434,-0.886 0.252,-0.156 0.063,0.291 0.367,1.692 0.689,-1.613 -0.501,-2.316 z m -2.125,-2.321 v 0 l 1.872,1.557 0.369,-1.557 z m 1.241,4.226 v 0 l -2.14,-2.003 -2.725,1.834 -0.094,1.597 2.39,-1.734 0.15,-0.106 0.125,0.131 1.888,2 z m -0.171,2.567 v 0 l 1.107,-0.786 0.26,-0.179 0.063,0.309 0.298,1.37 0.688,-1.609 -0.424,-1.982 -1.538,0.949 z m -2.312,-6.793 v 0 h -2.145 l -0.083,1.402 z m -2.26,1.918 v 0 l -0.091,1.611 2.596,-1.75 0.141,-0.094 0.119,0.114 2.09,1.954 0.413,-1.74 -2.337,-1.94 z m 6.041,8.441 v 0 c 0.521,0.456 0.993,0.947 1.431,1.408 l 0.143,-0.432 -0.37,-1.812 z m 1.227,-1.361 v 0 l 0.265,-0.182 0.063,0.313 0.284,1.408 1.01,-3.041 -0.254,-1.564 -1.649,1.243 -0.056,-0.072 -1.26,2.944 c 0.014,0.01 0.027,0.018 0.039,0.027 z M -14.539,-8.5 v 0 c 0.201,-0.059 0.404,-0.113 0.606,-0.169 l -0.234,-0.405 z m 0.207,-1.092 v 0 l 0.186,-0.289 0.174,0.297 0.461,0.808 c 0.105,-0.027 0.21,-0.052 0.316,-0.074 l 0.084,-1.437 -0.903,-1.522 -1.012,1.538 -0.113,1.927 z m -4.522,1.048 v 0 l 0.198,1.157 c 1.006,-0.166 2.048,-0.483 3.074,-0.799 0.003,0 0.007,-10e-4 0.012,-10e-4 l 0.031,-0.553 -1.729,-1.52 -1.543,1.756 z m 1.409,-2.154 v 0 l 0.142,-0.157 0.157,0.138 1.636,1.443 0.099,-1.689 -2.021,-1.616 -1.804,1.805 0.303,1.774 z m 9.99,6.921 v 0 c -0.305,-0.189 -0.606,-0.379 -0.884,-0.571 -0.206,0.417 -0.522,0.767 -0.925,1.047 z m 1.205,2.137 v 0 l 0.398,-1.206 c -0.267,-0.146 -0.534,-0.295 -0.799,-0.452 z m -0.863,-1.796 v 0 l -1.629,0.433 c 0.638,0.291 1.437,0.797 2.127,1.647 z m -1.69,-1.24 v 0 c -1.238,-0.922 -2.93,-2.179 -5.18,-1.054 -1.78,0.889 -3.667,1.073 -5.174,0.501 -1.318,-0.5 -2.351,-1.535 -3.092,-3.078 -0.342,0.797 -0.813,2.631 -0.292,4.078 0.535,1.492 2.121,1.71 3.427,2.095 l 0.461,0.137 c 0.196,0.059 0.364,-0.118 0.706,-0.535 0.402,-0.499 0.898,-1.112 1.78,-1.112 0.682,0 1.168,0.123 1.685,0.252 0.594,0.152 1.775,0.539 2.8,0.539 1.76,0 2.429,-0.812 2.879,-1.823 m -6.049,3.858 v 0 L -14.889,-0.851 -14.91,-0.9 c -0.181,-0.424 -0.393,-0.572 -0.538,-0.623 -0.165,-0.058 -0.286,-0.001 -0.33,0.025 -0.111,0.061 -0.179,0.182 -0.174,0.32 0,0.143 0.078,0.264 0.213,0.336 0.005,0.005 1.743,1.024 3.428,2.01 -0.947,-0.728 -1.918,-1.479 -2.541,-1.986 m 0.305,-0.299 v 0 c 1.584,1.304 5.34,4.097 5.377,4.123 l -0.021,-0.01 -0.088,0.131 -0.125,0.231 c 0,0 -6.54,-3.833 -6.532,-3.828 -0.269,-0.143 -0.436,-0.407 -0.436,-0.704 -0.005,-0.289 0.142,-0.555 0.384,-0.692 0.199,-0.11 0.446,-0.135 0.677,-0.056 0.112,0.041 0.247,0.115 0.388,0.249 -0.14,-0.24 -0.416,-0.547 -0.96,-0.547 -0.277,0 -0.589,0.159 -0.825,0.416 -0.228,0.247 -0.344,0.538 -0.323,0.804 0.026,0.29 0.393,0.672 0.918,0.952 L -6.846,4.854 -6.945,4.632 -6.982,4.544 -6.951,4.461 c 0.258,-0.6 0.389,-1.238 0.389,-1.899 0,-2.687 -2.192,-4.874 -4.877,-4.874 -1.113,0 -2.161,0.364 -3.03,1.052 l -0.109,0.088 c 0.009,0.021 0.023,0.035 0.031,0.055 m -8.609,-3.334 v 0 c -0.319,0.066 -1.004,0.199 -1.914,0.328 -0.04,0.079 -0.08,0.16 -0.122,0.241 0.992,-0.236 1.747,-0.157 2.268,-0.009 -0.068,-0.129 -0.131,-0.262 -0.183,-0.407 -0.019,-0.05 -0.035,-0.103 -0.049,-0.153 m 0.032,-3.073 v 0 c 0.253,-0.904 0.614,-1.538 0.644,-1.586 l 0.134,-0.235 -1.15,-0.989 -1.045,1.73 0.221,1.244 c 0.423,-0.049 0.826,-0.103 1.196,-0.164 m -7.877,-4.157 v 0 c -0.233,0.108 -0.47,0.208 -0.701,0.302 -1.212,0.5 -2.262,0.931 -2.262,2.269 0,0.264 0.083,0.498 0.243,0.708 0.73,-1.254 1.252,-2.147 1.326,-2.277 l 0.05,-0.081 0.079,-0.052 z m -0.712,1.511 v 0 c -0.15,0.252 -0.659,1.124 -1.34,2.295 1.451,0.768 4.375,0.858 6.995,0.677 l -1.152,-6.055 z m 2.254,-2.567 v 0 l 2.073,-1.423 -0.72,-3.766 -1.115,1.219 c 0.272,0.641 0.441,1.308 0.441,1.989 0,0.883 -0.269,1.509 -0.679,1.981 m -8.994,-4.704 v 0 5.868 c 0.472,-0.515 1.139,-0.897 1.795,-1.265 1.074,-0.608 2.088,-1.179 2.088,-2.252 0,-0.905 -0.355,-1.691 -0.844,-2.351 z m 43.59,-2.522 v 0 H 2.195 l -0.48,1.634 c 0.984,1.013 2.183,2.247 3.422,3.516 z m 0.555,2.522 v 0 3.203 c 3.214,3.301 6.447,6.619 6.447,6.619 l 0.144,0.159 v -9.981 z m -5.647,1.42 v 0 l 0.116,0.778 0.796,-2.686 -0.211,-1.184 -0.976,0.904 -0.069,-0.072 -0.947,2.866 0.954,-0.741 0.284,-0.221 z m 19.616,-35.875 0.819,-1.208 v -10e-4 z m 0,-1.522 0.819,-1.114 c 5.538,-7.347 15.462,-15.503 15.571,-15.591 l 0.687,-0.565 v 67.603 c 0,0.976 -0.334,1.309 -1.033,1.909 -0.262,0.222 -1.537,1.17 -3.15,2.373 -2.631,1.957 -6.229,4.633 -6.977,5.323 -0.9,0.831 -1.521,0.583 -1.979,0.402 L 23.508,6.887 C 22.998,6.688 14.536,3.314 13.986,3.038 L 13.762,2.929 C 13.326,2.721 12.911,2.524 12.638,2.024 12.197,1.232 6.119,-9.181 5.543,-10.17 l -5.238,-3.377 -2.933,9.938 c 0.804,0.45 1.274,0.253 1.833,0.105 0.033,-0.009 3.256,-0.644 3.737,0.24 0.154,0.28 0.058,0.491 -0.01,0.593 -0.321,0.462 -1.073,0.429 -1.43,0.378 L 1.471,-2.3 C 0.961,-2.371 0.544,-2.424 -0.045,-2.074 0.736,-1.528 1.236,-0.621 1.436,0.062 1.502,0.277 1.605,0.422 1.717,0.55 1.84,0.341 1.961,0.008 1.961,-0.469 2.102,0.134 2.055,0.554 1.973,0.822 2.135,1.015 2.263,1.266 2.068,1.629 1.982,1.783 1.841,1.994 1.59,2.063 1.231,2.156 0.83,1.926 0.049,1.438 -0.625,1.395 -0.861,0.902 -1.081,0.418 -1.346,-0.157 -1.68,-0.877 -2.863,-1.377 c -0.117,-0.049 -0.249,-0.11 -0.375,-0.165 -0.791,2.675 -1.57,5.329 -2.356,7.979 0.123,0.062 0.217,0.115 0.268,0.146 0.127,0.079 0.187,0.221 0.16,0.371 -0.061,0.35 -0.639,0.747 -1.251,0.867 -0.665,0.125 -1.453,-0.09 -2.419,-0.389 -2.405,-0.741 -6.439,-2.258 -9.949,-4.113 -1.829,0.2 -4.811,0.522 -6.547,0.275 -0.507,-0.073 -1.587,-1.284 -1.643,-1.717 -0.122,-0.131 -0.349,-0.383 -0.595,-0.673 l -0.119,-0.145 c -0.167,-0.199 -0.338,-0.412 -0.49,-0.622 -0.376,-0.511 0.385,-2.532 1.202,-4.352 -2.397,0.189 -5.445,0.155 -7.933,-0.779 -1.776,3.045 -3.662,6.292 -3.901,6.718 -0.275,0.5 -0.685,0.697 -1.125,0.905 l -0.221,0.109 c -0.551,0.276 -9.015,3.65 -9.521,3.849 l -0.097,0.035 c -0.452,0.181 -1.075,0.429 -1.974,-0.402 -0.749,-0.69 -4.35,-3.366 -6.977,-5.323 -1.615,-1.203 -2.891,-2.151 -3.148,-2.373 -0.701,-0.6 -1.034,-0.933 -1.034,-1.909 v -67.603 l 0.683,0.565 c 0.112,0.088 10.037,8.246 15.574,15.592 l 0.795,1.125 v -9.27 c 0,-18.06 14.695,-32.758 32.757,-32.758 18.06,0 32.76,14.698 32.76,32.758 z" /></g><g
         transform="translate(406.5859,357.7695)"
         id="g5744"><path
           id="path5746"
           style="fill:#28a740;fill-opacity:1;fill-rule:evenodd;stroke:none"
           d="m 0,0 c -1.055,0.279 -2.23,0.687 -3.979,-1.013 -0.291,-0.286 -0.583,-0.592 -0.892,-0.921 -1.524,-1.611 -3.25,-3.438 -6.012,-3.438 -1.317,0 -2.743,0.439 -4.252,0.903 -1.697,0.52 -3.435,1.047 -5.048,0.92 0.447,0.433 0.948,0.764 1.506,0.975 1.361,0.514 3.082,0.341 4.726,-0.479 2.563,-1.281 4.494,0.159 5.771,1.111 l 0.169,0.126 c 1.677,1.181 4.109,2.452 5.644,3.1 1.387,0.582 1.762,1.753 1.996,2.408 0.281,0.79 0.873,0.374 0.873,0.374 L 0.568,4.107 C 1.02,4.388 1.533,4.994 1.684,4.951 1.691,4.951 2.203,4.723 2.06,4.392 1.951,4.156 1.234,3.575 1.182,3.397 1.018,2.844 0.656,2.193 0.15,1.745 -0.699,1.123 -0.004,0.589 0.164,0.504 0.818,0.181 1.333,0.254 1.833,0.326 L 1.864,0.33 C 2.4,0.407 2.895,0.293 2.986,0.198 2.984,0.195 2.984,0.192 2.98,0.182 2.777,-0.06 1.153,-0.302 0,0" /></g><g
         transform="translate(407.1113,361.3613)"
         id="g5748"><path
           id="path5750"
           style="fill:#36312f;fill-opacity:1;fill-rule:evenodd;stroke:none"
           d="m 0,0 c 0,-0.154 -0.125,-0.281 -0.281,-0.281 -0.154,0 -0.28,0.127 -0.28,0.281 0,0.156 0.126,0.28 0.28,0.28 C -0.125,0.28 0,0.156 0,0" /></g><g
         transform="translate(373.0068,353.207)"
         id="g5752"><path
           id="path5754"
           style="fill:#28a740;fill-opacity:1;fill-rule:evenodd;stroke:none"
           d="m 0,0 c -0.44,-0.375 -0.666,-0.837 -0.666,-1.372 0,-1.712 1.328,-2.258 2.609,-2.788 1.328,-0.546 2.578,-1.062 2.578,-2.819 0,-0.939 -0.362,-1.867 -0.9,-2.724 -0.449,-0.702 -0.964,-1.333 -1.537,-1.903 l -0.01,1.903 h -2.937 c 0.423,0.672 0.714,1.457 0.714,2.351 0,1.402 -1.208,2.08 -2.373,2.738 -0.932,0.523 -1.809,1.018 -2.081,1.836 C -4.976,-1.656 -4.71,-0.6 -3.766,0.553 -0.321,4.744 9.094,3.036 10.566,2.74 10.448,2.063 10.49,1.395 10.603,0.801 7.597,1.256 1.909,1.623 0,0" /></g><g
         transform="translate(384.6187,352.6387)"
         id="g5756"><path
           id="path5758"
           style="fill:#f8b158;fill-opacity:1;fill-rule:evenodd;stroke:none"
           d="M 0,0 C -0.34,0.797 -0.812,2.627 -0.292,4.078 0.242,5.57 1.829,5.787 3.134,6.171 L 3.598,6.306 C 3.791,6.368 3.96,6.19 4.298,5.77 4.698,5.277 5.2,4.662 6.083,4.662 c 0.677,0 1.167,0.122 1.681,0.251 0.598,0.152 1.775,0.541 2.803,0.541 1.757,0 2.429,-0.814 2.877,-1.826 C 12.208,2.707 10.516,1.449 8.262,2.573 6.483,3.465 4.598,3.649 3.09,3.075 1.773,2.578 0.741,1.539 0,0" /></g><g
         transform="translate(425.5996,298.4004)"
         id="g5760"><path
           id="path5762"
           style="fill:#d4282a;fill-opacity:1;fill-rule:evenodd;stroke:none"
           d="m 0,0 c 0,-17.561 -14.289,-31.846 -31.852,-31.846 -17.559,0 -31.849,14.285 -31.849,31.846 v 32.445 0.456 h -0.453 -2.35 v 11.423 h 15.066 v -2.071 -0.452 h 0.456 12.334 0.451 v 0.452 2.071 h 12.548 v -2.071 -0.452 h 0.454 12.336 0.453 v 0.452 2.071 H 2.832 V 32.901 H 0 Z" /></g><g
         transform="translate(416.9648,298.2744)"
         id="g5764"><path
           id="path5766"
           style="fill:#ffffff;fill-opacity:1;fill-rule:evenodd;stroke:none"
           d="m 0,0 c -0.119,-12.987 -10.227,-23.483 -23.184,-23.901 -7.73,-0.182 -14.203,3.213 -18.275,8.666 -3.121,4.199 -4.945,9.5 -4.894,15.235 V 32.442 H 0 Z" /></g><g
         transform="translate(414.8643,301.0957)"
         id="g5768"><path
           id="path5770"
           style="fill:#36312f;fill-opacity:1;fill-rule:evenodd;stroke:none"
           d="m 0,0 -0.36,-0.049 c 0.146,0.297 0.242,0.619 0.283,0.942 L 0,1.518 -0.009,1.598 v 10.13 l -1.166,-0.779 v 1.035 l -0.849,-0.646 v 0.965 l -0.484,0.56 -0.555,-0.607 v -0.87 l -0.813,0.636 v -1.234 l -1.182,0.901 V 1.643 L -5.065,1.518 -4.985,0.896 C -4.944,0.57 -4.849,0.248 -4.702,-0.049 L -5.065,0 l 0.08,-0.621 c 0.031,-0.252 0.095,-0.494 0.188,-0.733 l -0.268,0.04 0.08,-0.624 c 0.031,-0.25 0.095,-0.498 0.188,-0.734 l -0.268,0.039 0.08,-0.621 c 0.031,-0.252 0.095,-0.497 0.188,-0.736 l -0.268,0.041 0.08,-0.623 c 0.031,-0.249 0.095,-0.496 0.188,-0.733 l -0.268,0.038 0.08,-0.625 c 0.031,-0.247 0.095,-0.493 0.188,-0.731 l -0.268,0.041 0.009,-0.066 h -13.943 l -1.781,1.045 -0.473,0.279 v -2.029 l -2.939,1.75 -0.472,0.283 v -2.033 l -2.94,1.75 -0.472,0.283 v -1.703 c -0.976,1.678 -2.296,2.875 -4.909,2.064 0.441,1.029 0.903,1.398 0.91,1.402 l -0.499,0.25 c -0.03,-0.022 -0.37,-0.455 -0.79,-1.697 -1.033,0.831 -2.586,0.955 -4.052,0.697 l -0.186,14.71 v 0.071 l -0.055,0.045 c -0.012,0.008 -0.047,0.033 -0.104,0.068 0.22,0.274 0.564,0.662 1.011,1.041 0.248,-0.217 1.089,-0.872 2.321,-0.919 0.7,-0.024 1.285,0.335 1.841,0.743 0.171,-0.18 0.502,-0.455 0.961,-0.528 0.433,-0.074 0.872,0.048 1.31,0.353 0.027,0.018 0.015,0.008 0.042,0.03 l 0.031,-0.016 c 1.78,-0.554 2.725,-0.336 3.014,0.05 0.107,0.143 0.119,0.315 0.029,0.448 -0.24,0.354 -0.549,0.569 -0.924,0.636 -0.29,0.053 -0.611,0.01 -0.972,-0.111 -0.172,0.239 -0.656,0.708 -1.701,0.533 -0.338,-0.055 -0.659,-0.212 -0.965,-0.409 -0.966,0.597 -1.964,0.795 -2.961,0.584 -0.059,-0.01 -0.117,-0.029 -0.176,-0.045 -1.908,0.404 -3.539,0.107 -4.482,-0.828 -0.422,-0.421 -0.664,-0.932 -0.706,-1.466 -0.229,-0.075 -0.317,-0.159 -0.335,-0.174 l -0.045,-0.046 -0.003,-0.06 -0.209,-16.021 -0.369,-0.227 0.361,-0.304 -0.098,-7.641 0.832,-1.353 h 0.88 c 0.032,-0.724 0.284,-1.39 0.732,-1.85 0.247,-0.255 0.543,-0.429 0.857,-0.516 0.002,-0.169 0.014,-0.335 0.043,-0.503 0.19,-1.097 0.904,-1.935 1.768,-2.158 0.403,-1.125 1.361,-1.823 2.353,-1.654 0.022,0.006 0.036,0.011 0.056,0.017 0.454,-0.953 1.338,-1.527 2.24,-1.369 0.471,0.081 0.9,0.363 1.201,0.787 0.231,0.325 0.367,0.716 0.427,1.129 l 0.126,-0.041 c 1.177,-0.394 1.71,-1.236 2.272,-2.121 0.498,-0.782 0.979,-1.918 1.9,-2.432 l 0.084,-0.045 c 0.027,-0.016 0.118,-0.031 0.118,-0.031 l 0.026,-0.007 c 7.934,-1.189 15.96,2.474 21.116,8.484 l 0.1,0.113 c 0.029,0.034 0.056,0.182 0.056,0.182 l 0.006,0.041 c 0.09,0.537 0.116,0.637 0.116,1.146 0,0.278 -0.015,0.555 -0.039,0.828 h 1.052 l 0.889,1.353 h -0.444 l -0.019,0.157 c 0.428,0.145 0.827,0.406 1.154,0.764 0.442,0.47 0.727,1.082 0.807,1.711 L 0,-10.533 -0.269,-10.576 c 0.094,0.236 0.159,0.484 0.192,0.736 L 0,-9.22 -0.269,-9.258 c 0.094,0.237 0.159,0.483 0.192,0.734 L 0,-7.9 -0.269,-7.941 c 0.094,0.237 0.159,0.486 0.192,0.734 L 0,-6.582 -0.269,-6.623 c 0.094,0.238 0.159,0.481 0.192,0.731 L 0,-5.267 -0.269,-5.305 c 0.094,0.237 0.159,0.484 0.192,0.733 L 0,-3.949 -0.269,-3.99 c 0.094,0.239 0.159,0.484 0.192,0.736 L 0,-2.633 -0.269,-2.672 c 0.094,0.236 0.159,0.484 0.192,0.734 L 0,-1.314 -0.269,-1.354 c 0.094,0.239 0.159,0.481 0.192,0.733 z" /></g><g
         transform="translate(385.4043,281.0801)"
         id="g5772"><path
           id="path5774"
           style="fill:#ffffff;fill-opacity:1;fill-rule:evenodd;stroke:none"
           d="m 0,0 c -0.095,0.373 -0.256,0.719 -0.472,1.021 0.077,0.303 0.108,0.619 0.088,0.939 -0.014,0.288 -0.08,0.561 -0.169,0.819 0.047,0.006 0.097,0 0.145,0.01 0.18,0.038 0.344,0.109 0.501,0.193 L 0.234,2.568 0.308,2.338 C 0.311,2.338 0.424,2.002 0.424,2.002 0.612,1.451 0.768,1.004 0.928,0.609 0.575,0.483 0.261,0.279 0,0" /></g><g
         transform="translate(394.3652,285.4004)"
         id="g5776"><path
           id="path5778"
           style="fill:#ffffff;fill-opacity:1;fill-rule:evenodd;stroke:none"
           d="m 0,0 -0.14,-0.225 c -0.022,-0.037 -0.391,-0.634 -0.732,-1.464 -0.583,0.802 -1.55,1.634 -3.14,1.996 l -0.162,0.035 -0.57,0.125 c -0.262,-0.897 -0.304,-1.735 -0.134,-2.78 -0.702,0.456 -1.768,1.176 -3.034,1.276 l -0.239,0.02 -0.261,0.023 c 0.082,0.086 0.158,0.178 0.229,0.282 0.24,0.359 0.371,0.8 0.407,1.265 h 8.12 z" /></g><g
         transform="translate(400.8945,285.3027)"
         id="g5780"><path
           id="path5782"
           style="fill:#ffffff;fill-opacity:1;fill-rule:evenodd;stroke:none"
           d="m 0,0 c -0.015,-0.002 -0.029,-0.006 -0.043,-0.01 -1.5,-0.284 -2.312,-1.219 -2.738,-1.97 -0.237,0.166 -0.492,0.306 -0.77,0.419 -1.371,0.556 -1.881,1.4 -1.885,1.409 0,-0.006 -0.127,0.225 -0.127,0.225 L -5.887,0.65 H 0.037 C 0.018,0.436 0.004,0.221 0,0" /></g><g
         transform="translate(407.1543,311.4146)"
         id="g5784"><path
           id="path5786"
           style="fill:#36312f;fill-opacity:1;fill-rule:evenodd;stroke:none"
           d="m 0,0 c -0.506,-0.709 -1.326,-1.133 -2.197,-1.133 -0.985,0 -1.893,0.541 -2.367,1.404 h -0.823 c -0.472,-0.863 -1.381,-1.404 -2.367,-1.404 -0.986,0 -1.894,0.541 -2.372,1.404 h -0.819 c -0.476,-0.863 -1.383,-1.404 -2.368,-1.404 -0.987,0 -1.894,0.541 -2.37,1.404 h -0.821 c -0.475,-0.863 -1.383,-1.404 -2.368,-1.404 -0.987,0 -1.895,0.541 -2.367,1.404 h -0.825 c -0.472,-0.863 -1.38,-1.404 -2.368,-1.404 -0.805,0 -1.562,0.357 -2.076,0.976 l -0.721,-0.597 c 0.692,-0.835 1.713,-1.315 2.797,-1.315 1.088,0 2.094,0.491 2.781,1.305 0.682,-0.814 1.695,-1.305 2.779,-1.305 1.084,0 2.097,0.491 2.78,1.305 0.683,-0.814 1.694,-1.305 2.779,-1.305 1.085,0 2.095,0.491 2.779,1.305 0.684,-0.814 1.692,-1.305 2.78,-1.305 1.084,0 2.097,0.491 2.779,1.305 0.685,-0.814 1.693,-1.305 2.778,-1.305 1.173,0 2.277,0.57 2.962,1.524 z" /></g><g
         transform="translate(409.9316,317.7891)"
         id="g5788"><path
           id="path5790"
           style="fill:#36312f;fill-opacity:1;fill-rule:evenodd;stroke:none"
           d="M 0,0 0.268,0.216 0.803,0.641 0.128,0.766 -0.209,0.829 c 0,0 -6.557,1.192 -7.897,1.437 -0.013,0.203 -0.032,0.402 -0.054,0.592 l 0.135,0.255 c 0.289,0.532 0.584,1.084 0.978,2.206 0.006,0.014 0.011,0.025 0.012,0.037 l 4.646,2.241 -1.115,-3.384 -0.172,-0.528 -0.352,-1.062 0.852,0.726 0.422,0.36 c 0.002,0.003 8.194,7.345 8.194,7.345 L 1.039,9.625 1.561,11.219 1.656,11.512 1.847,12.097 1.261,11.908 0.971,11.816 -8.4,8.763 c -0.308,0.233 -0.629,0.45 -0.922,0.65 0,-0.005 -0.456,0.305 -0.456,0.305 -0.583,0.405 -1.216,0.52 -1.844,0.356 l -0.255,0.172 -0.457,0.309 c -0.674,0.463 -1.404,0.549 -2.118,0.258 l -0.241,0.161 -0.456,0.309 c -1.345,0.932 -2.5,0.152 -3.014,-0.315 -0.308,0.187 -0.617,0.369 -0.933,0.548 -0.6,0.334 -1.306,0.31 -1.939,-0.066 -0.887,-0.525 -1.512,-1.648 -1.779,-3.171 l -10.858,3.537 -0.291,0.092 -0.588,0.189 0.194,-0.585 0.095,-0.293 0.522,-1.607 -3.987,1.1 7.773,-7 c 0.002,-0.003 0.427,-0.363 0.427,-0.363 l 0.85,-0.724 -0.348,1.06 -0.174,0.528 -1.115,3.384 6.107,-2.948 c -0.115,-0.506 -0.172,-1.106 -0.172,-1.831 0,-0.272 0.024,-0.541 0.06,-0.818 l -8.174,-1.484 -0.336,-0.062 -0.678,-0.123 0.536,-0.431 0.27,-0.211 c 0,0 0.34,-0.276 0.638,-0.512 l -5.428,-2.225 11.676,0.339 c 0.005,0 0.393,0.022 0.393,0.022 l 0.776,0.048 -0.594,0.505 -0.297,0.252 c 0,0 -0.712,0.601 -1.233,1.041 l 3.364,0.466 c 0.434,-0.607 0.933,-1.047 1.274,-1.347 0.266,-0.231 0.627,-0.546 0.627,-0.677 v -4.436 -0.437 l 0.415,0.138 0.205,0.071 c 0.571,0.195 1.042,0.588 1.328,1.112 l 0.089,0.16 h 1.196 l 0.088,-0.16 c 0.419,-0.765 1.223,-1.242 2.093,-1.242 0.872,0 1.675,0.477 2.094,1.242 0,0 0.044,0.076 0.087,0.16 h 1.197 l 0.088,-0.16 c 0.418,-0.765 1.222,-1.242 2.094,-1.242 0.269,0 0.545,0.047 0.81,0.148 l 0.106,0.035 0.204,0.079 v 0.216 4.225 c 0.536,0.621 0.914,1.386 1.126,2.284 l 2.35,-0.323 -1.229,-1.041 -0.299,-0.251 -0.596,-0.5 0.78,-0.052 0.384,-0.025 c 0.006,0 11.737,-0.34 11.737,-0.34 l -5.487,2.221 C -0.344,-0.278 0,0 0,0" /></g><g
         transform="translate(410.8018,328.9102)"
         id="g5792"><path
           id="path5794"
           style="fill:#ffe000;fill-opacity:1;fill-rule:evenodd;stroke:none"
           d="m 0,0 -0.737,-2.264 -0.11,-0.324 0.317,0.135 3.496,1.478 -6.57,-5.6 1.287,3.904 0.113,0.349 -0.332,-0.161 -5.541,-2.669 c 0.135,0.937 -0.309,1.625 -0.971,2.21 z" /></g><g
         transform="translate(382.0371,317.4224)"
         id="g5796"><path
           id="path5798"
           style="fill:#ffe000;fill-opacity:1;fill-rule:evenodd;stroke:none"
           d="m 0,0 -0.347,-0.047 0.266,-0.226 1.737,-1.468 -9.427,-0.583 4.609,1.552 0.272,0.092 -0.222,0.176 -1.034,0.833 11.777,2.146 C 7.781,2.146 8.113,1.755 8.747,1.622 9.288,1.508 9.678,1.506 10.045,1.758 10.109,1.631 10.199,1.523 10.307,1.427 Z" /></g><g
         transform="translate(388.7656,324.813)"
         id="g5800"><path
           id="path5802"
           style="fill:#ffe000;fill-opacity:1;fill-rule:evenodd;stroke:none"
           d="M 0,0 C -0.252,-0.128 -0.505,-0.224 -0.75,-0.32 -1.512,-0.611 -2.197,-0.88 -2.583,-1.9 l -7.288,3.514 -0.329,0.161 0.114,-0.349 1.283,-3.903 -6.571,5.599 3.497,-1.478 0.316,-0.135 -0.107,0.324 -0.738,2.264 L 0.078,0.033 C 0.051,0.026 0.026,0.011 0,0" /></g><g
         transform="translate(403.4658,315.9927)"
         id="g5804"><path
           id="path5806"
           style="fill:#ffe000;fill-opacity:1;fill-rule:evenodd;stroke:none"
           d="m 0,0 1.737,1.468 0.27,0.229 -0.35,0.046 -5.213,0.723 c 0.422,0.211 0.803,0.575 1.012,1.097 0.004,0.011 0.006,0.02 0.01,0.024 L 5.804,2.072 4.769,1.242 4.547,1.061 4.819,0.971 9.433,-0.581 Z" /></g><g
         transform="translate(392.9858,318.8555)"
         id="g5808"><path
           id="path5810"
           style="fill:#fad0a4;fill-opacity:1;fill-rule:evenodd;stroke:none"
           d="m 0,0 c -0.178,0.042 -0.517,0.177 -0.651,0.545 0.28,0.289 0.568,0.752 0.917,1.449 0.731,1.465 2.277,4.98 0.834,5.984 L 0.937,8.09 c -0.653,0.455 -1.226,0.853 -1.839,1.246 0.344,0.366 1.255,1.119 2.346,0.366 L 1.905,9.389 C 3.246,8.494 4.508,7.646 3.938,6.025 3.464,4.675 2.996,3.536 2.537,2.43 L 1.961,1.026 C 1.624,0.178 0.68,-0.169 0,0" /></g><g
         transform="translate(395.9736,318.6895)"
         id="g5812"><path
           id="path5814"
           style="fill:#fad0a4;fill-opacity:1;fill-rule:evenodd;stroke:none"
           d="m 0,0 c -0.261,0.064 -0.688,0.271 -0.724,1.028 l -0.034,0.005 c 0.007,0.017 0.015,0.029 0.02,0.041 l 0.575,1.403 C 0.297,3.586 0.769,4.73 1.247,6.086 1.79,7.631 0.883,8.553 -0.234,9.352 0.181,9.513 0.702,9.531 1.273,9.14 L 1.733,8.824 C 1.898,8.713 2.065,8.604 2.226,8.492 2.228,8.491 2.229,8.486 2.231,8.484 L 2.235,8.486 C 3.362,7.702 4.265,6.874 3.771,5.459 3.367,4.325 3.003,3.544 2.648,2.791 2.405,2.269 2.148,1.73 1.892,1.088 1.556,0.246 0.642,-0.158 0,0" /></g><g
         transform="translate(402.2969,323.3145)"
         id="g5816"><path
           id="path5818"
           style="fill:#fad0a4;fill-opacity:1;fill-rule:evenodd;stroke:none"
           d="m 0,0 c -0.379,-1.073 -0.652,-1.58 -0.941,-2.119 -0.221,-0.407 -0.45,-0.832 -0.725,-1.523 -0.336,-0.844 -1.25,-1.244 -1.893,-1.087 -0.263,0.063 -0.691,0.274 -0.623,0.962 l -0.015,10e-4 c 0.015,0.038 0.039,0.071 0.058,0.115 0.254,0.635 0.502,1.169 0.746,1.686 0.359,0.757 0.729,1.549 1.131,2.696 0.537,1.53 -0.347,2.452 -1.449,3.244 0.357,0.065 0.771,0.009 1.215,-0.297 L -2.037,3.367 C -0.698,2.467 0.567,1.622 0,0" /></g><g
         transform="translate(388.1294,324.2021)"
         id="g5820"><path
           id="path5822"
           style="fill:#fad0a4;fill-opacity:1;fill-rule:evenodd;stroke:none"
           d="M 0,0 C 0.25,0.094 0.511,0.195 0.775,0.327 2.093,0.989 3.771,1.567 4.05,1.662 4.308,1.593 5.668,1.168 5.455,-0.077 5.217,-1.463 2.843,-1.876 2.817,-1.878 L 2.692,-1.901 2.686,-2.03 c 0,-0.078 -0.092,-1.955 -2.83,-2.246 l 0.002,-0.018 -1.721,-0.313 c -0.055,0.305 -0.089,0.64 -0.089,1.01 0,2.848 0.818,3.16 1.952,3.597" /></g><g
         transform="translate(392.9717,320.9863)"
         id="g5824"><path
           id="path5826"
           style="fill:#fad0a4;fill-opacity:1;fill-rule:evenodd;stroke:none"
           d="m 0,0 c -0.308,-0.617 -0.558,-1.023 -0.787,-1.287 -0.027,-0.021 -0.049,-0.047 -0.072,-0.075 -0.384,-0.392 -0.735,-0.386 -1.263,-0.275 -0.745,0.158 -0.926,0.702 -0.964,0.865 0.967,0.615 1.181,1.497 1.23,1.822 0.507,0.105 2.529,0.603 2.775,2.034 0.227,1.313 -1.002,1.954 -1.684,2.107 L -0.806,5.202 -0.849,5.189 C -0.864,5.181 -2.362,4.68 -3.718,4.058 l -1.588,0.516 c 0.192,1.522 0.735,2.657 1.555,3.141 0.439,0.264 0.904,0.284 1.314,0.056 1.234,-0.693 2.106,-1.3 3.21,-2.068 L 0.936,5.59 C 1.952,4.881 1.117,2.239 0,0" /></g><g
         transform="translate(399.1289,318.2505)"
         id="g5828"><path
           id="path5830"
           style="fill:#fad0a4;fill-opacity:1;fill-rule:evenodd;stroke:none"
           d="m 0,0 c -0.16,-0.011 -0.318,-0.004 -0.467,0.031 -0.06,0.016 -0.118,0.033 -0.176,0.058 L -2.061,0.283 C -2.454,0.101 -2.873,0.048 -3.232,0.134 -3.5,0.201 -3.71,0.337 -3.867,0.533 l -0.74,0.103 c -0.475,-0.328 -1.058,-0.448 -1.545,-0.35 0.809,-0.463 1.734,-1.35 2.214,-3.053 l -0.3,-0.081 c -0.569,2.018 -1.765,2.81 -2.59,3.124 l -5.281,-0.732 c 0.372,-0.528 0.811,-0.923 1.191,-1.255 0.47,-0.413 0.844,-0.735 0.844,-1.15 v -3.978 c 0.324,0.161 0.596,0.408 0.771,0.728 l 0.222,0.405 0.047,0.08 H -7.1 l 0.044,-0.08 0.224,-0.405 c 0.309,-0.567 0.9,-0.919 1.545,-0.919 0.643,0 1.234,0.352 1.544,0.919 l 0.22,0.405 0.047,0.08 h 1.933 l 0.047,-0.08 0.221,-0.405 c 0.308,-0.567 0.9,-0.919 1.546,-0.919 0.163,0 0.329,0.031 0.496,0.084 v 3.801 c -0.699,-0.623 -1.363,-0.8 -1.38,-0.803 l -0.073,0.304 c 0.063,0.015 0.766,0.2 1.453,0.899 V -2.7 h 0.042 c 0.484,0.508 0.95,1.277 1.162,2.427 z" /></g><g
         transform="translate(413.7695,298.9453)"
         id="g5832"><path
           id="path5834"
           style="fill:#ffe000;fill-opacity:1;fill-rule:evenodd;stroke:none"
           d="m 0,0 c -0.416,-0.421 -0.932,-0.666 -1.439,-0.734 0.07,0.505 0.315,1.019 0.73,1.437 0.422,0.418 0.934,0.662 1.441,0.728 C 0.665,0.928 0.42,0.415 0,0" /></g><g
         transform="translate(413.7695,297.2109)"
         id="g5836"><path
           id="path5838"
           style="fill:#ffe000;fill-opacity:1;fill-rule:evenodd;stroke:none"
           d="m 0,0 c -0.416,-0.416 -0.932,-0.664 -1.439,-0.732 0.07,0.505 0.315,1.019 0.73,1.437 0.422,0.416 0.934,0.666 1.441,0.732 C 0.665,0.932 0.42,0.42 0,0" /></g><g
         transform="translate(413.7695,295.4805)"
         id="g5840"><path
           id="path5842"
           style="fill:#ffe000;fill-opacity:1;fill-rule:evenodd;stroke:none"
           d="m 0,0 c -0.416,-0.416 -0.932,-0.66 -1.439,-0.729 0.07,0.506 0.315,1.018 0.73,1.438 0.422,0.416 0.934,0.663 1.441,0.73 C 0.665,0.932 0.42,0.42 0,0" /></g><g
         transform="translate(413.7695,293.752)"
         id="g5844"><path
           id="path5846"
           style="fill:#ffe000;fill-opacity:1;fill-rule:evenodd;stroke:none"
           d="m 0,0 c -0.416,-0.418 -0.932,-0.664 -1.439,-0.732 0.07,0.505 0.315,1.023 0.73,1.441 0.422,0.416 0.934,0.664 1.441,0.73 C 0.665,0.932 0.42,0.422 0,0" /></g><g
         transform="translate(413.7695,292.0234)"
         id="g5848"><path
           id="path5850"
           style="fill:#ffe000;fill-opacity:1;fill-rule:evenodd;stroke:none"
           d="m 0,0 c -0.416,-0.421 -0.932,-0.663 -1.439,-0.732 0.07,0.505 0.315,1.017 0.73,1.437 0.422,0.416 0.934,0.664 1.441,0.729 C 0.665,0.931 0.42,0.418 0,0" /></g><g
         transform="translate(413.7695,290.291)"
         id="g5852"><path
           id="path5854"
           style="fill:#ffe000;fill-opacity:1;fill-rule:evenodd;stroke:none"
           d="m 0,0 c -0.416,-0.415 -0.932,-0.662 -1.439,-0.73 0.07,0.509 0.315,1.018 0.73,1.44 0.422,0.413 0.934,0.659 1.441,0.729 C 0.665,0.937 0.42,0.42 0,0" /></g><g
         transform="translate(410.8867,298.9453)"
         id="g5856"><path
           id="path5858"
           style="fill:#ffe000;fill-opacity:1;fill-rule:evenodd;stroke:none"
           d="M 0,0 C 0.416,-0.421 0.932,-0.666 1.436,-0.734 1.369,-0.229 1.123,0.285 0.704,0.703 0.285,1.121 -0.226,1.365 -0.733,1.431 -0.664,0.928 -0.421,0.415 0,0" /></g><g
         transform="translate(410.8867,297.2109)"
         id="g5860"><path
           id="path5862"
           style="fill:#ffe000;fill-opacity:1;fill-rule:evenodd;stroke:none"
           d="M 0,0 C 0.416,-0.416 0.932,-0.664 1.436,-0.732 1.369,-0.227 1.123,0.287 0.704,0.705 0.285,1.121 -0.226,1.371 -0.733,1.437 -0.664,0.932 -0.421,0.42 0,0" /></g><g
         transform="translate(410.8867,295.4805)"
         id="g5864"><path
           id="path5866"
           style="fill:#ffe000;fill-opacity:1;fill-rule:evenodd;stroke:none"
           d="M 0,0 C 0.416,-0.416 0.932,-0.66 1.436,-0.729 1.369,-0.223 1.123,0.289 0.704,0.709 0.285,1.125 -0.226,1.372 -0.733,1.439 -0.664,0.932 -0.421,0.42 0,0" /></g><g
         transform="translate(410.8867,293.752)"
         id="g5868"><path
           id="path5870"
           style="fill:#ffe000;fill-opacity:1;fill-rule:evenodd;stroke:none"
           d="M 0,0 C 0.416,-0.418 0.932,-0.664 1.436,-0.732 1.369,-0.227 1.123,0.291 0.704,0.709 0.285,1.125 -0.226,1.373 -0.733,1.439 -0.664,0.932 -0.421,0.422 0,0" /></g><g
         transform="translate(410.8867,292.0234)"
         id="g5872"><path
           id="path5874"
           style="fill:#ffe000;fill-opacity:1;fill-rule:evenodd;stroke:none"
           d="M 0,0 C 0.416,-0.421 0.932,-0.663 1.436,-0.732 1.369,-0.227 1.123,0.285 0.704,0.705 0.285,1.121 -0.226,1.369 -0.733,1.434 -0.664,0.931 -0.421,0.418 0,0" /></g><g
         transform="translate(410.8867,290.291)"
         id="g5876"><path
           id="path5878"
           style="fill:#ffe000;fill-opacity:1;fill-rule:evenodd;stroke:none"
           d="M 0,0 C 0.416,-0.415 0.932,-0.662 1.436,-0.73 1.369,-0.221 1.123,0.288 0.704,0.71 0.285,1.123 -0.226,1.369 -0.733,1.439 -0.664,0.937 -0.421,0.42 0,0" /></g><g
         transform="translate(410.8945,288.5635)"
         id="g5880"><path
           id="path5882"
           style="fill:#ffe000;fill-opacity:1;fill-rule:evenodd;stroke:none"
           d="M 0,0 C 0.416,-0.419 0.932,-0.663 1.436,-0.731 1.368,-0.222 1.123,0.288 0.705,0.706 0.285,1.125 -0.227,1.368 -0.732,1.437 -0.664,0.935 -0.418,0.415 0,0" /></g><g
         transform="translate(413.7695,288.5635)"
         id="g5884"><path
           id="path5886"
           style="fill:#ffe000;fill-opacity:1;fill-rule:evenodd;stroke:none"
           d="m 0,0 c -0.416,-0.419 -0.932,-0.663 -1.439,-0.731 0.07,0.509 0.315,1.019 0.73,1.437 0.422,0.419 0.934,0.662 1.441,0.731 C 0.665,0.935 0.42,0.415 0,0" /></g><g
         transform="translate(411.5996,301.3262)"
         id="g5888"><path
           id="path5890"
           style="fill:#ffe000;fill-opacity:1;fill-rule:evenodd;stroke:none"
           d="m 0,0 c -0.318,0.316 -0.691,0.531 -1.078,0.65 v 9.828 l -0.359,0.311 V 0.729 c 0.068,-0.504 0.312,-1.02 0.732,-1.438 0.416,-0.418 0.932,-0.662 1.435,-0.73 C 0.663,-0.936 0.418,-0.42 0,0" /></g><g
         transform="translate(411.5596,312.2803)"
         id="g5892"><path
           id="path5894"
           style="fill:#ffe000;fill-opacity:1;fill-rule:evenodd;stroke:none"
           d="M 0,0 -0.36,0.315 V -10.058 L 0,-10.339 Z" /></g><g
         transform="translate(414.4746,312.1138)"
         id="g5896"><path
           id="path5898"
           style="fill:#ffe000;fill-opacity:1;fill-rule:evenodd;stroke:none"
           d="m 0,0 -0.359,-0.31 v -9.833 c -0.375,-0.121 -0.741,-0.336 -1.053,-0.643 -0.417,-0.422 -0.662,-0.937 -0.731,-1.443 0.508,0.07 1.02,0.314 1.438,0.734 0.42,0.418 0.665,0.936 0.732,1.437 C 0.016,-10.058 0,0 0,0" /></g><g
         transform="translate(412.5195,303.4883)"
         id="g5900"><path
           id="path5902"
           style="fill:#ffe000;fill-opacity:1;fill-rule:evenodd;stroke:none"
           d="M 0,0 V 9.592 L -0.163,9.904 -0.359,9.592 V 0.023 c -0.207,-0.359 -0.328,-0.792 -0.328,-1.26 0,-0.591 0.188,-1.13 0.498,-1.534 0.31,0.404 0.501,0.943 0.501,1.534 C 0.312,-0.776 0.196,-0.357 0,0" /></g><g
         transform="translate(395.6562,287.3057)"
         id="g5904"><path
           id="path5906"
           style="fill:#dcdbdc;fill-opacity:1;fill-rule:evenodd;stroke:none"
           d="m 0,0 h -2 c -0.035,0.102 -0.055,0.211 -0.055,0.321 0,0.585 0.472,1.057 1.056,1.057 0.583,0 1.057,-0.472 1.057,-1.057 C 0.058,0.211 0.035,0.102 0,0" /></g><g
         transform="translate(398.416,288.0947)"
         id="g5908"><path
           id="path5910"
           style="fill:#eeeeef;fill-opacity:1;fill-rule:evenodd;stroke:none"
           d="m 0,0 c 0.02,-0.179 0.031,-0.325 0.031,-0.468 0,-0.099 -0.008,-0.204 -0.017,-0.321 h -1.276 c 0.015,0.106 0.022,0.212 0.022,0.321 0,1.395 -1.129,2.522 -2.52,2.522 -1.39,0 -2.52,-1.127 -2.52,-2.522 0.003,-0.109 0.008,-0.215 0.024,-0.321 h -1.276 c -0.011,0.117 -0.015,0.222 -0.015,0.321 0,0.143 0.01,0.293 0.031,0.468 l 0.018,0.161 -0.12,0.111 -1.029,0.924 c 0.073,0.217 0.157,0.421 0.253,0.617 l 1.389,-0.07 0.157,-0.009 0.104,0.125 c 0.191,0.25 0.412,0.469 0.656,0.662 l 0.128,0.097 -0.008,0.163 -0.07,1.384 c 0.197,0.1 0.401,0.187 0.616,0.26 l 0.929,-1.031 0.106,-0.121 0.162,0.016 c 0.178,0.024 0.326,0.036 0.465,0.036 0.141,0 0.289,-0.012 0.467,-0.036 l 0.16,-0.016 0.108,0.121 0.929,1.031 c 0.216,-0.073 0.421,-0.16 0.615,-0.26 L -1.55,2.781 -1.557,2.618 -1.428,2.519 c 0.242,-0.192 0.461,-0.413 0.653,-0.66 l 0.101,-0.125 0.161,0.009 1.39,0.07 C 0.972,1.617 1.057,1.413 1.131,1.196 L 0.1,0.272 -0.021,0.161 Z" /></g><g
         transform="translate(405.7637,293.876)"
         id="g5912"><path
           id="path5914"
           style="fill:#acd39c;fill-opacity:1;fill-rule:evenodd;stroke:none"
           d="m 0,0 -6.705,-5.958 c 0.008,-0.1 0.014,-0.198 0.014,-0.291 0,-0.102 -0.008,-0.209 -0.016,-0.321 h 1.674 l 0.592,0.626 c 0.693,2.201 2.183,3.822 3.974,4.216 L 1.168,0 Z" /></g><g
         transform="translate(407.4727,292.0059)"
         id="g5916"><path
           id="path5918"
           style="fill:#acd39c;fill-opacity:1;fill-rule:evenodd;stroke:none"
           d="m 0,0 c 0.537,-0.193 1.041,-0.492 1.496,-0.893 l 0.38,2.762 H 0.703 Z" /></g><g
         transform="translate(409.8789,293.876)"
         id="g5920"><path
           id="path5922"
           style="fill:#acd39c;fill-opacity:1;fill-rule:evenodd;stroke:none"
           d="m 0,0 h -0.5 v -3.159 c 0.164,-0.176 0.324,-0.363 0.471,-0.561 L -0.08,-3.315 0.188,-3.356 C 0.094,-3.118 0.031,-2.872 0,-2.62 l -0.08,0.621 0.268,-0.039 C 0.094,-1.802 0.031,-1.555 0,-1.304 l -0.08,0.623 0.268,-0.038 C 0.1,-0.489 0.033,-0.243 0,0" /></g><g
         transform="translate(406.9668,293.876)"
         id="g5924"><path
           id="path5926"
           style="fill:#acd39c;fill-opacity:1;fill-rule:evenodd;stroke:none"
           d="m 0,0 -1.242,-1.659 c 0.138,0.018 0.273,0.033 0.413,0.033 0.358,0 0.706,-0.051 1.046,-0.145 L 1.171,0 Z" /></g><g
         transform="translate(397.5723,292.4395)"
         id="g5928"><path
           id="path5930"
           style="fill:#acd39c;fill-opacity:1;fill-rule:evenodd;stroke:none"
           d="m 0,0 -0.036,-0.738 5.667,2.174 h -6.36 L -0.443,1.27 -0.287,1.178 V 0.35 C -0.248,0.328 -0.203,0.311 -0.162,0.291 L 0.011,0.197 Z" /></g><g
         transform="translate(410.9473,287.9727)"
         id="g5932"><path
           id="path5934"
           style="fill:#acd39c;fill-opacity:1;fill-rule:evenodd;stroke:none"
           d="M 0,0 C 0.07,-0.219 0.131,-0.439 0.187,-0.668 H 0.871 L 0.893,-0.51 C 0.574,-0.402 0.269,-0.227 0,0" /></g><g
         transform="translate(403.2617,293.876)"
         id="g5936"><path
           id="path5938"
           style="fill:#acd39c;fill-opacity:1;fill-rule:evenodd;stroke:none"
           d="m 0,0 -5.741,-2.462 -0.024,-0.422 c 0.191,-0.156 0.367,-0.335 0.529,-0.522 L -5.203,-3.405 1.217,0 Z" /></g><g
         transform="translate(399.666,290.5527)"
         id="g5940"><path
           id="path5942"
           style="fill:#acd39c;fill-opacity:1;fill-rule:evenodd;stroke:none"
           d="M 0,0 0.094,-0.174 C 0.215,-0.395 0.314,-0.63 0.406,-0.873 L 6.051,3.322 H 4.865 l -5.494,-3.355 0.43,0.025 z" /></g><g
         transform="translate(404.0723,278.8379)"
         id="g5944"><path
           id="path5946"
           style="fill:#f4971f;fill-opacity:1;fill-rule:evenodd;stroke:none"
           d="m 0,0 c -4.372,-2.279 -8.847,-3.627 -13.879,-2.875 -0.717,0.408 -1.359,1.718 -1.809,2.426 -0.587,0.928 -1.292,1.742 -2.611,2.256 0.441,0.437 1.242,0.531 1.506,0.507 0.334,-0.474 0.727,-0.726 1.51,-1.222 1.617,-1.031 1.646,-2.272 1.646,-2.321 0,0 0.307,0.532 -0.06,1.159 -0.257,0.444 -0.688,0.955 -1.418,1.421 -0.701,0.446 -1.79,0.967 -2.344,2.862 -0.105,0.365 -0.126,0.557 -0.365,0.851 2.278,-0.269 3.528,-1.722 3.856,-2.289 0.306,-1.12 0.84,-2.205 1.577,-3.193 0.207,-0.279 0.901,-0.6 0.901,-0.6 -0.996,1.092 -1.709,2.004 -2.192,3.931 -0.297,1.105 -0.528,2.407 -0.351,3.53 2.729,-0.702 3.336,-2.539 3.34,-2.564 l 0.027,0.003 c -0.03,-0.258 -0.069,-1.222 -0.053,-1.474 0.053,-0.873 0.311,-1.675 0.569,-2.265 0.265,-0.618 0.81,-0.866 0.81,-0.866 -0.008,0.012 -0.969,1.446 -1.068,3.151 -0.082,1.379 0.797,3.365 1.115,3.931 0.266,-0.349 0.904,-1.404 2.16,-1.914 0.745,-0.3 1.23,-0.868 1.495,-1.571 0.322,-0.854 0.211,-1.87 -0.325,-2.938 0,0 0.537,0.429 0.623,0.709 0.26,0.841 0.26,1.636 -0.008,2.339 -0.078,0.215 -0.183,0.412 -0.312,0.598 0.077,0.305 0.568,1.969 2.472,2.328 1.542,0.293 2.35,0.769 2.715,1.041 0.01,-0.402 -0.08,-1.222 -0.839,-2.252 L -1.825,4.014 C -3.606,1.507 -3.451,0.217 -3.451,0.217 c 0,0.006 0.363,0.82 0.563,1.144 0.297,0.467 0.784,0.844 1.274,1.286 0.575,0.517 1.139,1.115 1.823,1.378 C 1.662,4.473 2.748,5.869 3.063,6.453 3.266,5.288 3.324,2.01 0,0" /></g><g
         transform="translate(381.5171,304.1523)"
         id="g5948"><path
           id="path5950"
           style="fill:#36312f;fill-opacity:1;fill-rule:evenodd;stroke:none"
           d="m 0,0 c -0.805,-0.037 -1.435,0.526 -1.435,1.426 h 0.86 c 0.006,-0.547 0.222,-0.768 0.622,-0.768 0.44,0 0.628,0.389 0.628,0.768 V 4.59 H 1.547 V 1.689 C 1.547,0.779 1.284,0.055 0,0" /></g><g
         transform="translate(385.4976,304.1484)"
         id="g5952"><path
           id="path5954"
           style="fill:#36312f;fill-opacity:1;fill-rule:evenodd;stroke:none"
           d="m 0,0 c -1.26,-0.02 -1.945,0.762 -1.945,1.743 v 2.851 h 0.85 L -1.103,1.743 c 0,-0.591 0.413,-1.059 1.182,-1.04 0.806,0.02 1.048,0.463 1.048,1.01 V 4.594 H 1.995 V 1.713 C 1.995,0.723 1.449,0.018 0,0" /></g><g
         transform="translate(389.9043,304.1523)"
         id="g5956"><path
           id="path5958"
           style="fill:#36312f;fill-opacity:1;fill-rule:evenodd;stroke:none"
           d="M 0,0 C -0.998,-0.004 -1.961,0.449 -1.942,1.596 H -1.11 C -1.128,0.942 -0.604,0.687 -0.05,0.68 0.452,0.675 1.075,0.875 1.053,1.347 1.042,1.732 0.681,1.87 0.319,1.953 L -0.517,2.142 C -1.194,2.289 -1.801,2.556 -1.801,3.32 -1.806,4.177 -0.951,4.711 0.011,4.696 1.756,4.664 1.822,3.533 1.841,3.162 H 0.981 C 0.943,3.645 0.749,4.002 0.039,4.034 -0.375,4.055 -0.944,3.867 -0.944,3.436 -0.937,3.123 -0.633,2.965 -0.311,2.905 L 0.328,2.787 C 1.119,2.637 1.874,2.301 1.883,1.473 1.883,0.459 0.937,0.008 0,0" /></g><g
         transform="translate(395.5996,308.0742)"
         id="g5960"><path
           id="path5962"
           style="fill:#36312f;fill-opacity:1;fill-rule:evenodd;stroke:none"
           d="m 0,0 h -1.298 l 0.007,-3.783 H -2.156 V 0 H -3.459 V 0.668 H 0 Z" /></g><path
         id="path5964"
         style="fill:#36312f;fill-opacity:1;fill-rule:evenodd;stroke:none"
         d="m 396.119,308.743 h 0.859 v -4.452 h -0.859 z" /><g
         transform="translate(399.8223,304.1328)"
         id="g5966"><path
           id="path5968"
           style="fill:#36312f;fill-opacity:1;fill-rule:evenodd;stroke:none"
           d="M 0,0 C -1.303,0 -2.26,1.162 -2.234,2.408 -2.208,3.63 -1.256,4.724 0.034,4.709 1.097,4.701 1.865,4.083 2.125,3.14 H 1.222 C 1.168,3.456 0.822,4.035 0.034,4.012 -0.825,3.98 -1.344,3.162 -1.336,2.347 -1.33,1.502 -0.734,0.689 0.135,0.693 0.703,0.699 1.193,1.008 1.254,1.623 h 0.92 C 2.021,0.6 1.072,0.007 0,0" /></g><path
         id="path5970"
         style="fill:#36312f;fill-opacity:1;fill-rule:evenodd;stroke:none"
         d="m 402.57,308.743 h 0.861 v -4.452 h -0.861 z" /><g
         transform="translate(407.4453,304.2891)"
         id="g5972"><path
           id="path5974"
           style="fill:#36312f;fill-opacity:1;fill-rule:evenodd;stroke:none"
           d="M 0,0 -0.424,1 H -2.303 L -2.698,0 h -0.851 l 1.785,4.454 h 0.753 L 0.896,0 Z m -1.404,3.287 -0.63,-1.621 h 1.325 z" /></g><g
         transform="translate(384.2764,298.2119)"
         id="g5976"><path
           id="path5978"
           style="fill:#36312f;fill-opacity:1;fill-rule:evenodd;stroke:none"
           d="m 0,0 c -0.995,-0.008 -1.96,0.445 -1.939,1.595 h 0.831 C -1.128,0.94 -0.601,0.683 -0.048,0.677 0.452,0.672 1.077,0.872 1.056,1.344 1.042,1.731 0.683,1.868 0.321,1.952 l -0.84,0.186 C -1.191,2.286 -1.795,2.552 -1.795,3.313 -1.802,4.177 -0.95,4.714 0.014,4.695 1.759,4.661 1.825,3.532 1.844,3.161 H 0.983 C 0.945,3.641 0.749,4 0.04,4.032 -0.373,4.052 -0.942,3.864 -0.942,3.433 -0.937,3.124 -0.626,2.968 -0.306,2.905 L 0.328,2.786 C 1.121,2.634 1.875,2.298 1.881,1.47 1.881,0.458 0.937,0.005 0,0" /></g><g
         transform="translate(388.978,298.2119)"
         id="g5980"><path
           id="path5982"
           style="fill:#36312f;fill-opacity:1;fill-rule:evenodd;stroke:none"
           d="M 0,0 C -1.344,0.017 -2.406,1.12 -2.38,2.399 -2.347,3.664 -1.266,4.692 0.063,4.687 1.378,4.679 2.433,3.677 2.479,2.431 2.526,1.089 1.423,-0.026 0,0 M 0.065,4 C -0.814,4.008 -1.397,3.208 -1.428,2.39 -1.462,1.513 -0.872,0.722 0.016,0.703 0.926,0.679 1.573,1.47 1.541,2.39 1.514,3.208 0.937,4 0.063,4 Z" /></g><g
         transform="translate(394.1699,298.1934)"
         id="g5984"><path
           id="path5986"
           style="fill:#36312f;fill-opacity:1;fill-rule:evenodd;stroke:none"
           d="m 0,0 c -1.304,0 -2.261,1.16 -2.234,2.408 0.026,1.219 0.98,2.311 2.269,2.297 C 1.096,4.697 1.865,4.08 2.127,3.135 L 1.221,3.136 C 1.167,3.451 0.819,4.034 0.035,4.006 -0.823,3.977 -1.344,3.158 -1.339,2.346 -1.33,1.5 -0.735,0.684 0.131,0.693 0.703,0.697 1.194,1.003 1.252,1.619 L 2.174,1.62 C 2.02,0.598 1.07,0.004 0,0" /></g><path
         id="path5988"
         style="fill:#36312f;fill-opacity:1;fill-rule:evenodd;stroke:none"
         d="m 396.919,302.797 h 0.859 v -4.451 h -0.859 z" /><g
         transform="translate(401.791,298.3477)"
         id="g5990"><path
           id="path5992"
           style="fill:#36312f;fill-opacity:1;fill-rule:evenodd;stroke:none"
           d="M 0,0 -0.419,0.998 H -2.301 L -2.695,0 h -0.854 l 1.785,4.45 H -1.01 L 0.895,0 Z M -1.402,3.285 -2.031,1.666 h 1.323 z" /></g><g
         transform="translate(403.043,298.3477)"
         id="g5994"><path
           id="path5996"
           style="fill:#36312f;fill-opacity:1;fill-rule:evenodd;stroke:none"
           d="M 0,0 V 4.45 H 0.867 V 0.676 H 3.041 V 0 Z" /></g><g
         transform="translate(386.6841,313.2114)"
         id="g5998"><path
           id="path6000"
           style="fill:#b2b1b3;fill-opacity:1;fill-rule:evenodd;stroke:none"
           d="M 0,0 C 0.294,-0.05 0.53,-0.215 0.719,-0.5 0.732,-0.52 0.726,-0.548 0.7,-0.587 0.544,-0.793 -0.17,-1.044 -1.772,-0.581 -1.055,-0.116 -0.462,0.084 0,0" /></g><g
         transform="translate(384.1162,313.6333)"
         id="g6002"><path
           id="path6004"
           style="fill:#b2b1b3;fill-opacity:1;fill-rule:evenodd;stroke:none"
           d="M 0,0 C 0.793,0.133 1.187,-0.156 1.35,-0.344 1.026,-0.489 0.674,-0.694 0.3,-0.967 c -0.387,-0.286 -0.763,-0.396 -1.124,-0.338 -0.349,0.057 -0.614,0.263 -0.763,0.408 0.024,0.018 0.049,0.034 0.069,0.055 C -1.005,-0.454 -0.522,-0.086 0,0" /></g><g
         transform="translate(380.2075,313.8145)"
         id="g6006"><path
           id="path6008"
           style="fill:#b2b1b3;fill-opacity:1;fill-rule:evenodd;stroke:none"
           d="M 0,0 C 0.876,0.182 1.75,0.021 2.608,-0.472 2.468,-0.572 2.337,-0.676 2.203,-0.776 1.591,-1.241 0.959,-1.722 0.239,-1.695 c -1.061,0.042 -1.819,0.581 -2.084,0.803 0.329,0.247 0.703,0.483 1.111,0.657 C -0.501,-0.136 -0.248,-0.051 0,0" /></g><g
         transform="translate(375.0996,311.8574)"
         id="g6010"><path
           id="path6012"
           style="fill:#b2b1b3;fill-opacity:1;fill-rule:evenodd;stroke:none"
           d="M 0,0 C 0.058,0.423 0.263,0.828 0.602,1.165 1.381,1.934 2.688,2.232 4.25,2.01 3.002,1.485 2.096,0.462 1.692,-0.062 1.471,0 1.156,0.056 0.704,0.056 0.411,0.056 0.186,0.034 0,0" /></g><g
         transform="translate(407.041,291.6963)"
         id="g6014"><path
           id="path6016"
           style="fill:#28a740;fill-opacity:1;fill-rule:evenodd;stroke:none"
           d="M 0,0 C 0.006,0.005 0.016,0.011 0.026,0.017 -0.275,0.11 -0.586,0.161 -0.903,0.161 -1.221,0.161 -1.531,0.11 -1.83,0.017 -1.818,0.011 -1.811,0.005 -1.803,0 c 0.254,-0.242 0.236,-0.683 -0.046,-1.101 -0.539,-0.802 -1.09,-1.914 -1.333,-4.072 l 0.059,0.069 0.079,-0.278 c 0.011,-0.039 0.19,-0.719 -0.257,-1.754 -0.004,-0.181 -0.008,-0.359 -0.008,-0.549 0,-0.237 0.012,-0.611 0.031,-0.828 0.196,0.108 0.397,0.2 0.609,0.272 2.128,0.691 2.656,2.482 2.661,2.498 l 0.151,0.498 0.149,-0.498 c 0.009,-0.038 0.851,-2.999 -1.126,-5.496 0.736,0.513 1.439,1.074 2.111,1.669 0.14,0.536 0.225,1.159 0.225,1.885 0,3.901 -0.736,5.52 -1.46,6.584 C -0.239,-0.683 -0.255,-0.242 0,0" /></g><g
         transform="translate(404.9375,291.4854)"
         id="g6018"><path
           id="path6020"
           style="fill:#28a740;fill-opacity:1;fill-rule:evenodd;stroke:none"
           d="m 0,0 c -0.058,0.054 -0.146,0.079 -0.262,0.069 -1.741,-0.83 -2.998,-3.172 -2.998,-5.928 0,-0.066 0.004,-0.126 0.006,-0.193 0.939,0.264 1.477,0.583 1.743,0.779 0.226,2.46 0.827,3.696 1.422,4.577 C 0.1,-0.419 0.138,-0.132 0,0" /></g><g
         transform="translate(407.6221,291.6387)"
         id="g6022"><path
           id="path6024"
           style="fill:#28a740;fill-opacity:1;fill-rule:evenodd;stroke:none"
           d="m 0,0 c -0.118,0.01 -0.208,-0.014 -0.263,-0.068 -0.14,-0.131 -0.103,-0.42 0.088,-0.695 0.748,-1.109 1.512,-2.78 1.512,-6.76 0,-0.567 -0.057,-1.067 -0.142,-1.526 0.591,0.555 1.156,1.138 1.689,1.755 0.074,0.46 0.109,0.915 0.109,1.367 C 2.993,-3.17 1.739,-0.83 0,0" /></g><g
         transform="translate(403.1387,283.0391)"
         id="g6026"><path
           id="path6028"
           style="fill:#ffffff;fill-opacity:1;fill-rule:evenodd;stroke:none"
           d="m 0,0 -0.517,-0.691 c -0.087,-0.121 -0.174,-0.238 -0.264,-0.354 0.029,-0.062 0.051,-0.121 0.076,-0.178 0.313,0.326 0.658,0.619 1.032,0.862 C 0.304,-0.109 0.283,0.148 0.283,0.426 0.202,0.283 0.107,0.148 0,0" /></g><g
         transform="translate(410.3984,283.7119)"
         id="g6030"><path
           id="path6032"
           style="fill:#ffffff;fill-opacity:1;fill-rule:evenodd;stroke:none"
           d="M 0,0 0.036,0.079 C 0.027,0.067 0.016,0.058 0.005,0.044 0.004,0.03 0.002,0.013 0,0" /></g><g
         transform="translate(375.1387,292.8926)"
         id="g6034"><path
           id="path6036"
           style="fill:#dbdbdc;fill-opacity:1;fill-rule:evenodd;stroke:none"
           d="M 0,0 C 0.192,0.41 0.415,0.76 0.678,1.049 0.436,1.141 0.215,1.238 0.014,1.346 Z" /></g><g
         transform="translate(374.4922,294.6836)"
         id="g6038"><path
           id="path6040"
           style="fill:#dbdbdc;fill-opacity:1;fill-rule:evenodd;stroke:none"
           d="m 0,0 -0.06,-4.678 0.027,0.196 0.023,0.206 c 0.074,0.604 0.184,1.149 0.332,1.633 l 0.026,2.379 c -0.093,0.061 -0.184,0.123 -0.264,0.192 z" /></g><g
         transform="translate(375.1016,289.5801)"
         id="g6042"><path
           id="path6044"
           style="fill:#dcdbdc;fill-opacity:1;fill-rule:evenodd;stroke:none"
           d="M 0,0 -0.01,-0.771 C 0.048,-0.478 0.152,-0.204 0.279,0.046 0.252,0.043 0.224,0.033 0.198,0.027 Z" /></g><g
         transform="translate(375.0762,287.3057)"
         id="g6046"><path
           id="path6048"
           style="fill:#dcdbdc;fill-opacity:1;fill-rule:evenodd;stroke:none"
           d="M 0,0 H 0.089 C 0.053,0.11 0.023,0.222 0.005,0.341 Z" /></g><g
         transform="translate(374.3984,287.3057)"
         id="g6050"><path
           id="path6052"
           style="fill:#dbdbdc;fill-opacity:1;fill-rule:evenodd;stroke:none"
           d="M 0,0 H 0.365 L 0.387,2.227 0.026,2.173 Z" /></g><g
         transform="translate(375.1733,296.0547)"
         id="g6054"><path
           id="path6056"
           style="fill:#dbdbdc;fill-opacity:1;fill-rule:evenodd;stroke:none"
           d="M 0,0 C 0.577,0.285 1.254,0.524 1.964,0.676 L 1.776,15.351 c -0.121,0.062 -0.458,0.193 -1.146,0.193 -0.688,0 -0.993,-0.129 -1.097,-0.186 l -0.2,-15.733 c 0.05,0.029 0.153,0.094 0.153,0.094 0.064,0.039 0.131,0.072 0.2,0.113 l 0.162,14.828 0.314,-0.003 z" /></g><g
         transform="translate(394.2388,294.6797)"
         id="g6058"><path
           id="path6060"
           style="fill:#dbdbdc;fill-opacity:1;fill-rule:evenodd;stroke:none"
           d="m 0,0 v -2.035 l -0.473,0.279 -2.94,1.749 v -2.028 l -0.472,0.279 -2.94,1.749 v -1.815 c 0.097,-0.2 0.191,-0.404 0.283,-0.606 l 0.128,-0.277 0.087,-0.19 0.316,-0.673 -0.738,-0.116 -0.205,-0.033 c -0.454,-0.066 -0.885,-0.087 -1.294,-0.074 0.2,-0.239 0.365,-0.512 0.491,-0.81 0.376,-0.909 0.292,-1.891 -0.171,-2.559 0.031,-0.069 0.058,-0.141 0.087,-0.215 h 3.862 c -0.012,0.113 -0.019,0.221 -0.019,0.322 0,0.121 0.007,0.248 0.021,0.379 l -1.068,0.964 -0.145,0.132 0.055,0.187 c 0.116,0.383 0.268,0.75 0.452,1.09 l 0.092,0.174 0.2,-0.006 1.443,-0.076 c 0.16,0.187 0.336,0.365 0.526,0.523 l -0.075,1.445 -0.01,0.198 0.175,0.092 c 0.34,0.186 0.706,0.338 1.091,0.451 l 0.187,0.059 0.134,-0.149 0.962,-1.066 c 0.131,0.013 0.256,0.021 0.377,0.021 0.116,0 0.242,-0.008 0.375,-0.021 L 1.758,-1.59 1.89,-1.441 2.079,-1.5 c 0.115,-0.035 0.229,-0.08 0.342,-0.123 l 0.001,0.201 z" /></g><g
         transform="translate(380.8262,287.0176)"
         id="g6062"><path
           id="path6064"
           style="fill:#aa539a;fill-opacity:1;fill-rule:evenodd;stroke:none"
           d="m 0,0 c -0.128,-0.235 -0.292,-0.447 -0.487,-0.603 -0.297,-0.235 -0.633,-0.34 -0.971,-0.303 -0.236,0.027 -0.446,0.125 -0.631,0.272 -0.036,-0.156 -0.057,-0.32 -0.057,-0.487 -0.004,-0.949 0.543,-1.719 1.215,-1.727 0.255,0 0.499,0.11 0.709,0.316 0.118,0.116 0.218,0.258 0.299,0.419 -0.075,0.214 -0.124,0.445 -0.136,0.69 -0.024,0.415 0.05,0.813 0.199,1.153 C 0.099,-0.173 0.052,-0.086 0,0" /></g><g
         transform="translate(383.145,286.877)"
         id="g6066"><path
           id="path6068"
           style="fill:#aa539a;fill-opacity:1;fill-rule:evenodd;stroke:none"
           d="m 0,0 c -0.251,-0.301 -0.58,-0.494 -0.95,-0.514 -0.333,-0.017 -0.642,0.11 -0.908,0.333 -0.152,-0.309 -0.229,-0.692 -0.207,-1.081 0.055,-0.945 0.645,-1.687 1.317,-1.646 0.675,0.035 1.179,0.838 1.126,1.785 C 0.355,-0.687 0.212,-0.293 0,0" /></g><g
         transform="translate(379.5044,283.9316)"
         id="g6070"><path
           id="path6072"
           style="fill:#aa539a;fill-opacity:1;fill-rule:evenodd;stroke:none"
           d="M 0,0 C -0.278,0.098 -0.52,0.291 -0.709,0.553 -0.853,0.413 -1.016,0.304 -1.192,0.232 -1.266,-0.056 -1.28,-0.377 -1.222,-0.697 -1.061,-1.631 -0.388,-2.298 0.275,-2.182 0.617,-2.125 0.884,-1.876 1.05,-1.523 0.552,-1.268 0.146,-0.707 0,0" /></g><g
         transform="translate(384.1499,282.9922)"
         id="g6074"><path
           id="path6076"
           style="fill:#aa539a;fill-opacity:1;fill-rule:evenodd;stroke:none"
           d="M 0,0 C -0.036,0.598 -0.284,1.111 -0.633,1.402 -0.874,1.004 -1.228,0.735 -1.638,0.678 -1.728,0.134 -2,-0.32 -2.383,-0.557 -2.208,-1.293 -1.696,-1.819 -1.125,-1.785 -0.453,-1.749 0.051,-0.949 0,0" /></g><g
         transform="translate(381.0562,284.5479)"
         id="g6078"><path
           id="path6080"
           style="fill:#aa539a;fill-opacity:1;fill-rule:evenodd;stroke:none"
           d="m 0,0 c -0.071,-0.101 -0.146,-0.198 -0.231,-0.284 -0.268,-0.268 -0.591,-0.404 -0.93,-0.404 -0.017,0 -0.036,0.003 -0.055,0.003 C -1,-1.508 -0.378,-2.071 0.236,-1.966 0.695,-1.886 1.03,-1.45 1.139,-0.884 0.676,-0.82 0.262,-0.485 0,0" /></g><g
         transform="translate(381.478,282.3057)"
         id="g6082"><path
           id="path6084"
           style="fill:#aa539a;fill-opacity:1;fill-rule:evenodd;stroke:none"
           d="m 0,0 c -0.044,-0.011 -0.086,-0.023 -0.131,-0.032 -0.171,-0.03 -0.341,-0.016 -0.5,0.025 -0.196,-0.423 -0.518,-0.728 -0.914,-0.836 0.203,-0.849 0.837,-1.437 1.467,-1.329 0.428,0.077 0.75,0.461 0.879,0.98 C 0.431,-0.95 0.139,-0.521 0,0" /></g><g
         transform="translate(384.603,280.6816)"
         id="g6086"><path
           id="path6088"
           style="fill:#aa539a;fill-opacity:1;fill-rule:evenodd;stroke:none"
           d="M 0,0 C -0.069,0.389 -0.227,0.734 -0.435,0.992 -0.692,0.541 -1.096,0.238 -1.562,0.215 -1.727,0.201 -1.889,0.232 -2.041,0.288 -2.119,0.014 -2.246,-0.227 -2.413,-0.42 -2.25,-1.35 -1.578,-2.02 -0.914,-1.902 -0.249,-1.787 0.159,-0.93 0,0" /></g><g
         transform="translate(379.9473,289.7891)"
         id="g6090"><path
           id="path6092"
           style="fill:#aa539a;fill-opacity:1;fill-rule:evenodd;stroke:none"
           d="m 0,0 c -0.031,0.012 -0.062,0.027 -0.094,0.031 -0.31,-0.525 -0.793,-0.866 -1.299,-0.889 -0.087,-0.204 -0.147,-0.429 -0.175,-0.663 -0.106,-0.944 0.353,-1.774 1.024,-1.844 0.253,-0.026 0.507,0.054 0.739,0.236 0.358,0.285 0.606,0.785 0.67,1.334 C 0.87,-1.73 0.87,-1.664 0.873,-1.6 L 0.794,-1.483 C 0.444,-0.961 0.188,-0.465 0,0" /></g><g
         transform="translate(379.7515,290.332)"
         id="g6094"><path
           id="path6096"
           style="fill:#aa539a;fill-opacity:1;fill-rule:evenodd;stroke:none"
           d="M 0,0 C -0.258,0.838 -0.295,1.529 -0.271,2.004 -0.313,2.051 -0.36,2.092 -0.408,2.13 -0.854,1.778 -1.552,1.256 -2.305,0.801 -2.457,-0.121 -2.06,-0.961 -1.405,-1.081 -0.837,-1.182 -0.263,-0.717 0,0" /></g><g
         transform="translate(384.9248,291.2461)"
         id="g6098"><path
           id="path6100"
           style="fill:#aa539a;fill-opacity:1;fill-rule:evenodd;stroke:none"
           d="M 0,0 C -0.013,0.131 -0.042,0.258 -0.078,0.381 -0.866,0.627 -1.339,1.064 -1.615,1.441 -1.63,0.855 -1.756,-0.018 -2.249,-0.957 -1.99,-1.539 -1.509,-1.91 -1.008,-1.852 -0.339,-1.77 0.116,-0.94 0,0" /></g><g
         transform="translate(383.1138,289.293)"
         id="g6102"><path
           id="path6104"
           style="fill:#aa539a;fill-opacity:1;fill-rule:evenodd;stroke:none"
           d="m 0,0 c -0.244,0.156 -0.458,0.389 -0.622,0.677 -0.318,-0.521 -0.759,-1.054 -1.362,-1.566 0.009,-0.145 0.009,-0.293 -0.008,-0.445 -0.012,-0.137 -0.041,-0.268 -0.077,-0.398 0.232,-0.545 0.66,-0.911 1.138,-0.888 0.669,0.034 1.181,0.831 1.139,1.78 C 0.189,-0.542 0.116,-0.25 0,0" /></g><g
         transform="translate(383.2622,293.4307)"
         id="g6106"><path
           id="path6108"
           style="fill:#28a740;fill-opacity:1;fill-rule:evenodd;stroke:none"
           d="m 0,0 -0.305,-0.071 c 0.007,-0.024 0.497,-2.606 -2.047,-4.734 -1.537,2.388 -1.041,4.288 -1.032,4.31 l 10e-4,0.018 v 0.024 0.336 l -0.254,-0.218 c -0.029,-0.023 -2.578,-2.181 -4.247,-2.579 0.276,1.922 0.913,2.774 1.411,3.153 0.495,0.371 0.94,0.364 1.059,0.352 0.02,-0.002 0.031,-0.004 0.037,-0.004 l 0.044,0.31 h -0.011 c 0,0 -0.009,0 -0.018,0.004 H -5.37 c -0.219,0.028 -1.695,0.229 -2.572,0.815 1.771,0.992 4.758,1.449 5.953,-0.029 l 0.072,-0.093 0.108,0.047 C 1.525,3.046 2.414,1.122 3.642,-1.544 L 3.681,-1.626 C 0.575,-1.999 0.023,-0.081 0,0" /></g><g
         transform="translate(378.2266,288.9619)"
         id="g6110"><path
           id="path6112"
           style="fill:#aa539a;fill-opacity:1;fill-rule:evenodd;stroke:none"
           d="M 0,0 C -0.497,0.117 -0.872,0.554 -1.035,1.124 -1.203,1.106 -1.367,1.047 -1.527,0.935 -1.903,0.673 -2.186,0.19 -2.286,-0.352 c -0.172,-0.93 0.233,-1.788 0.894,-1.907 0.482,-0.094 0.975,0.236 1.27,0.778 -0.052,0.255 -0.069,0.536 -0.038,0.824 C -0.133,-0.429 -0.078,-0.204 0,0" /></g><g
         transform="translate(385.6748,289.7441)"
         id="g6114"><path
           id="path6116"
           style="fill:#aa539a;fill-opacity:1;fill-rule:evenodd;stroke:none"
           d="m 0,0 c -0.112,0.275 -0.275,0.522 -0.47,0.717 -0.149,-0.74 -0.626,-1.304 -1.252,-1.379 -0.148,-0.018 -0.293,-0.006 -0.433,0.035 0.061,-0.205 0.1,-0.426 0.111,-0.648 v -0.067 c 0.41,-0.615 1.053,-0.926 1.57,-0.715 C 0.151,-1.799 0.361,-0.871 0,0" /></g><g
         transform="translate(378.481,286.6465)"
         id="g6118"><path
           id="path6120"
           style="fill:#aa539a;fill-opacity:1;fill-rule:evenodd;stroke:none"
           d="m 0,0 c -0.1,0.135 -0.189,0.283 -0.258,0.443 -0.366,-0.509 -0.906,-0.797 -1.444,-0.699 -0.035,0.009 -0.07,0.02 -0.101,0.029 -0.017,-0.099 -0.027,-0.2 -0.028,-0.302 -0.015,-0.95 0.525,-1.725 1.198,-1.739 0.294,-0.003 0.566,0.141 0.78,0.379 -0.166,0.325 -0.263,0.72 -0.261,1.139 C -0.111,-0.488 -0.071,-0.232 0,0" /></g><g
         transform="translate(385.6914,286.6504)"
         id="g6122"><path
           id="path6124"
           style="fill:#aa539a;fill-opacity:1;fill-rule:evenodd;stroke:none"
           d="M 0,0 C -0.061,0.295 -0.167,0.557 -0.31,0.779 -0.331,0.768 -0.351,0.757 -0.373,0.749 -0.901,0.531 -1.52,0.729 -1.998,1.197 -2.05,1.146 -2.103,1.088 -2.147,1.023 -2.199,0.83 -2.273,0.655 -2.365,0.494 c 0.287,-0.348 0.478,-0.831 0.512,-1.375 0.01,-0.219 -0.006,-0.432 -0.045,-0.633 0.294,-0.316 0.667,-0.484 1.029,-0.41 0.251,0.049 0.47,0.203 0.632,0.449 C 0.019,-1.092 0.107,-0.543 0,0" /></g><g
         transform="translate(381.7246,358.1201)"
         id="g6126"><path
           id="path6128"
           style="fill:#ffe000;fill-opacity:1;fill-rule:evenodd;stroke:none"
           d="M 0,0 C 1.014,-0.412 2.354,-0.013 2.952,0.603 L 1.791,1.112 C 1.327,0.499 0.596,0.391 0.023,0.723 -0.422,0.971 -0.684,1.452 -0.719,2.207 l -0.69,0.302 C -1.353,1.218 -0.873,0.354 0,0" /></g><g
         transform="translate(373.1343,332.4023)"
         id="g6130"><path
           id="path6132"
           style="fill:#ffffff;fill-opacity:1;fill-rule:evenodd;stroke:none"
           d="M 0,0 V 4.668 H -1.833 V 5.625 H 3.072 V 4.668 H 1.251 V 0 Z" /></g><path
         id="path6134"
         style="fill:#ffffff;fill-opacity:1;fill-rule:evenodd;stroke:none"
         d="m 378.266,338.027 h 1.251 v -5.624 h -1.251 z" /><g
         transform="translate(384.2187,338.0254)"
         id="g6136"><path
           id="path6138"
           style="fill:#ffffff;fill-opacity:1;fill-rule:evenodd;stroke:none"
           d="M 0,0 H 1.253 V -3.565 C 1.253,-4.034 1.207,-4.391 1.119,-4.643 0.998,-4.97 0.778,-5.232 0.46,-5.431 0.144,-5.63 -0.275,-5.729 -0.795,-5.729 c -0.608,0 -1.076,0.156 -1.405,0.471 -0.33,0.315 -0.495,0.772 -0.499,1.377 l 1.185,0.123 c 0.012,-0.326 0.065,-0.557 0.151,-0.692 0.132,-0.205 0.336,-0.305 0.61,-0.305 0.274,0 0.467,0.069 0.583,0.215 0.112,0.145 0.17,0.446 0.17,0.898 z" /></g><g
         transform="translate(388.0981,338.0254)"
         id="g6140"><path
           id="path6142"
           style="fill:#ffffff;fill-opacity:1;fill-rule:evenodd;stroke:none"
           d="m 0,0 h 1.253 v -3.052 c 0,-0.485 0.018,-0.795 0.047,-0.94 0.053,-0.23 0.178,-0.414 0.378,-0.556 0.199,-0.141 0.472,-0.207 0.819,-0.207 0.355,0 0.62,0.063 0.798,0.194 0.179,0.133 0.286,0.295 0.321,0.489 0.037,0.191 0.057,0.51 0.057,0.957 V 0 H 4.925 V -2.959 C 4.925,-3.636 4.891,-4.112 4.822,-4.391 4.755,-4.671 4.631,-4.905 4.45,-5.1 4.269,-5.29 4.027,-5.443 3.724,-5.559 3.42,-5.673 3.024,-5.729 2.537,-5.729 1.947,-5.729 1.5,-5.668 1.194,-5.542 0.891,-5.418 0.648,-5.258 0.47,-5.059 0.297,-4.861 0.177,-4.653 0.122,-4.434 0.043,-4.112 0,-3.636 0,-3.006 Z" /></g><g
         transform="translate(401.2002,332.4038)"
         id="g6144"><path
           id="path6146"
           style="fill:#ffffff;fill-opacity:1;fill-rule:evenodd;stroke:none"
           d="M 0,0 H -1.349 L -1.884,1.276 H -4.366 L -4.878,0 H -6.2 l 2.404,5.622 h 1.317 z M -2.29,2.233 -3.149,4.307 -3.981,2.233 Z" /></g><g
         transform="translate(403.1602,332.4023)"
         id="g6148"><path
           id="path6150"
           style="fill:#ffffff;fill-opacity:1;fill-rule:evenodd;stroke:none"
           d="M 0,0 V 5.625 H 1.209 L 3.756,1.852 V 5.625 H 4.914 V 0 H 3.662 L 1.156,3.683 V 0 Z" /></g><g
         transform="translate(416.2598,332.4038)"
         id="g6152"><path
           id="path6154"
           style="fill:#ffffff;fill-opacity:1;fill-rule:evenodd;stroke:none"
           d="m 0,0 h -1.35 l -0.535,1.276 h -2.48 L -4.88,0 h -1.323 l 2.408,5.622 h 1.314 z M -2.293,2.233 -3.15,4.307 -3.981,2.233 Z" /></g><g
         transform="translate(423.8828,294.0215)"
         id="g6156"><path
           id="path6158"
           style="fill:#ffffff;fill-opacity:1;fill-rule:evenodd;stroke:none"
           d="m 0,0 -5.612,0.336 0.117,2 c 0.047,0.76 0.104,1.252 0.175,1.48 0.105,0.348 0.306,0.632 0.603,0.852 0.295,0.225 0.667,0.324 1.113,0.296 0.346,-0.023 0.632,-0.11 0.859,-0.259 C -2.518,4.553 -2.347,4.367 -2.223,4.148 -2.102,3.93 -2.026,3.707 -1.998,3.486 -1.961,3.188 -1.961,2.752 -1.992,2.19 L -2.042,1.378 0.074,1.25 Z m -4.586,1.529 1.591,-0.093 0.042,0.681 c 0.029,0.487 0.02,0.819 -0.027,0.987 -0.051,0.167 -0.135,0.305 -0.256,0.407 -0.118,0.1 -0.262,0.157 -0.424,0.165 C -3.867,3.689 -4.041,3.631 -4.18,3.508 -4.316,3.387 -4.41,3.223 -4.457,3.023 -4.494,2.878 -4.523,2.578 -4.551,2.129 Z" /></g><g
         transform="translate(424.0723,306.2505)"
         id="g6160"><path
           id="path6162"
           style="fill:#ffffff;fill-opacity:1;fill-rule:evenodd;stroke:none"
           d="M 0,0 V -1.349 L -1.278,-1.884 V -4.366 L 0,-4.877 V -6.2 l -5.625,2.407 v 1.314 z m -2.234,-2.291 -2.075,-0.859 2.075,-0.831 z" /></g><g
         transform="translate(424.0723,308.9731)"
         id="g6164"><path
           id="path6166"
           style="fill:#ffffff;fill-opacity:1;fill-rule:evenodd;stroke:none"
           d="m 0,0 h -4.668 v -1.832 h -0.957 v 4.904 h 0.957 V 1.251 H 0 Z" /></g><g
         transform="translate(424.0723,314.1484)"
         id="g6168"><path
           id="path6170"
           style="fill:#ffffff;fill-opacity:1;fill-rule:evenodd;stroke:none"
           d="m 0,0 h -5.625 v 2.627 c 0,0.657 0.051,1.139 0.151,1.437 0.102,0.301 0.283,0.541 0.539,0.72 0.261,0.179 0.554,0.27 0.886,0.27 0.427,0 0.774,-0.138 1.049,-0.408 0.275,-0.271 0.447,-0.68 0.519,-1.22 0.143,0.27 0.303,0.492 0.473,0.665 0.17,0.175 0.473,0.411 0.914,0.709 L 0,5.552 V 4.06 L -1.225,3.168 C -1.662,2.846 -1.937,2.627 -2.051,2.507 -2.162,2.391 -2.244,2.265 -2.285,2.133 -2.325,2.002 -2.348,1.793 -2.348,1.505 V 1.252 H 0 Z m -3.24,1.252 v 0.92 C -3.24,2.77 -3.264,3.143 -3.309,3.29 -3.356,3.441 -3.436,3.555 -3.547,3.64 -3.66,3.724 -3.801,3.766 -3.973,3.766 -4.158,3.766 -4.312,3.711 -4.43,3.599 -4.547,3.49 -4.619,3.332 -4.65,3.13 -4.662,3.03 -4.67,2.728 -4.67,2.223 l 0.002,-0.971 z" /></g><path
         id="path6172"
         style="fill:#ffffff;fill-opacity:1;fill-rule:evenodd;stroke:none"
         d="m 424.075,321.633 h -5.626 v 1.25 h 5.626 z" /><g
         transform="translate(424.0723,330.9238)"
         id="g6174"><path
           id="path6176"
           style="fill:#ffffff;fill-opacity:1;fill-rule:evenodd;stroke:none"
           d="M 0,0 V -1.348 L -1.278,-1.883 V -4.365 L 0,-4.875 V -6.2 l -5.625,2.403 v 1.315 z m -2.234,-2.291 -2.075,-0.855 2.075,-0.833 z" /></g><g
         transform="translate(363.5684,324.3506)"
         id="g6178"><path
           id="path6180"
           style="fill:#ffffff;fill-opacity:1;fill-rule:evenodd;stroke:none"
           d="m 0,0 v 1.35 l 1.28,0.534 v 2.48 L 0,4.876 V 6.2 L 5.624,3.794 V 2.481 Z m 2.234,2.289 2.078,0.862 -2.078,0.83 z" /></g><g
         transform="translate(364.2891,317.396)"
         id="g6182"><path
           id="path6184"
           style="fill:#ffffff;fill-opacity:1;fill-rule:evenodd;stroke:none"
           d="m 0,0 c -0.199,-0.305 -0.356,-0.636 -0.474,-0.994 l -0.806,0.458 c 0.05,0.186 0.119,0.372 0.205,0.55 0.018,0.039 0.182,0.317 0.492,0.83 -0.161,0.405 -0.243,0.851 -0.243,1.344 0,0.948 0.254,1.691 0.765,2.229 0.508,0.539 1.222,0.807 2.144,0.807 0.918,0 1.632,-0.271 2.142,-0.808 C 4.736,3.875 4.99,3.142 4.99,2.219 4.99,1.302 4.736,0.574 4.227,0.039 3.721,-0.499 3.006,-0.767 2.092,-0.767 1.607,-0.767 1.183,-0.692 0.814,-0.542 0.533,-0.427 0.264,-0.247 0,0 M 0.631,1.001 C 0.801,0.844 1.008,0.719 1.251,0.642 1.492,0.561 1.771,0.519 2.086,0.519 c 0.647,0 1.131,0.157 1.454,0.472 0.317,0.315 0.477,0.726 0.477,1.234 0,0.508 -0.16,0.923 -0.481,1.239 C 3.215,3.78 2.731,3.934 2.084,3.934 1.423,3.934 0.933,3.78 0.609,3.464 0.286,3.148 0.121,2.749 0.121,2.267 0.121,2.087 0.148,1.917 0.201,1.758 0.35,2.009 0.469,2.267 0.55,2.525 L 1.208,2.175 C 1.08,1.768 0.887,1.377 0.631,1.001" /></g><g
         transform="translate(369.1934,314.3555)"
         id="g6186"><path
           id="path6188"
           style="fill:#ffffff;fill-opacity:1;fill-rule:evenodd;stroke:none"
           d="m 0,0 v -1.252 h -3.051 c -0.485,0 -0.801,-0.016 -0.943,-0.047 -0.227,-0.051 -0.414,-0.177 -0.553,-0.378 -0.142,-0.198 -0.211,-0.471 -0.211,-0.82 0,-0.35 0.068,-0.617 0.199,-0.795 0.133,-0.179 0.293,-0.286 0.486,-0.322 0.192,-0.039 0.51,-0.055 0.958,-0.055 H 0 V -4.92 h -2.958 c -0.678,0 -1.156,0.032 -1.434,0.101 -0.279,0.065 -0.516,0.189 -0.708,0.37 -0.192,0.181 -0.342,0.426 -0.458,0.727 -0.114,0.302 -0.169,0.699 -0.169,1.187 0,0.591 0.06,1.038 0.186,1.343 0.123,0.304 0.283,0.544 0.485,0.722 0.197,0.176 0.404,0.292 0.622,0.346 C -4.114,-0.038 -3.636,0 -3.006,0 Z" /></g><path
         id="path6190"
         style="fill:#ffffff;fill-opacity:1;fill-rule:evenodd;stroke:none"
         d="m 363.568,306.871 h 5.624 v -1.252 h -5.624 z" /><g
         transform="translate(363.2715,296.1104)"
         id="g6192"><path
           id="path6194"
           style="fill:#ffffff;fill-opacity:1;fill-rule:evenodd;stroke:none"
           d="M 0,0 5.557,0.853 6.253,-3.685 5.311,-3.828 4.803,-0.528 3.572,-0.719 4.045,-3.79 3.1,-3.938 2.63,-0.866 1.131,-1.095 1.656,-4.507 0.711,-4.649 Z" /></g><g
         transform="translate(365.0015,288.2871)"
         id="g6196"><path
           id="path6198"
           style="fill:#ffffff;fill-opacity:1;fill-rule:evenodd;stroke:none"
           d="m 0,0 5.18,2.197 0.729,-1.726 -3.1,-2.52 3.963,0.482 0.73,-1.722 -5.179,-2.195 -0.451,1.066 4.074,1.73 -4.55,-0.607 -0.47,1.11 3.602,2.845 -4.076,-1.722 z" /></g><g
         transform="translate(369.2935,279.4004)"
         id="g6200"><path
           id="path6202"
           style="fill:#ffffff;fill-opacity:1;fill-rule:evenodd;stroke:none"
           d="M 0,0 4.116,3.834 5.483,2.367 C 6,1.812 6.316,1.429 6.431,1.221 6.611,0.905 6.68,0.562 6.636,0.194 6.591,-0.173 6.405,-0.509 6.077,-0.812 5.825,-1.049 5.566,-1.199 5.3,-1.256 5.031,-1.316 4.78,-1.316 4.538,-1.25 4.294,-1.187 4.082,-1.09 3.9,-0.959 3.66,-0.775 3.344,-0.479 2.958,-0.066 L 2.404,0.527 0.855,-0.915 Z M 4.271,2.266 3.105,1.178 3.569,0.68 C 3.903,0.319 4.148,0.101 4.305,0.021 4.462,-0.063 4.614,-0.095 4.772,-0.078 4.927,-0.063 5.066,0.004 5.186,0.116 5.337,0.257 5.416,0.42 5.423,0.604 5.431,0.793 5.378,0.973 5.263,1.141 5.181,1.266 4.984,1.498 4.679,1.826 Z" /></g><g
         transform="translate(375.0156,273.7979)"
         id="g6204"><path
           id="path6206"
           style="fill:#ffffff;fill-opacity:1;fill-rule:evenodd;stroke:none"
           d="M 0,0 3.287,4.562 4.303,3.831 1.016,-0.734 Z" /></g><g
         transform="translate(379.1787,271.1328)"
         id="g6208"><path
           id="path6210"
           style="fill:#ffffff;fill-opacity:1;fill-rule:evenodd;stroke:none"
           d="M 0,0 2.321,5.123 6.502,3.228 6.106,2.355 3.068,3.736 2.552,2.603 5.387,1.318 4.993,0.449 2.16,1.735 1.534,0.353 4.681,-1.07 4.284,-1.939 Z" /></g><g
         transform="translate(386.5547,268.2949)"
         id="g6212"><path
           id="path6214"
           style="fill:#ffffff;fill-opacity:1;fill-rule:evenodd;stroke:none"
           d="M 0,0 0.174,1.008 4.005,4.039 1.174,4.533 1.339,5.475 5.783,4.699 5.629,3.828 1.651,0.68 5.107,0.078 4.943,-0.863 Z" /></g><g
         transform="translate(399.9824,268.0039)"
         id="g6216"><path
           id="path6218"
           style="fill:#ffffff;fill-opacity:1;fill-rule:evenodd;stroke:none"
           d="m 0,0 -1.345,-0.113 -0.637,1.23 -2.476,-0.205 -0.404,-1.32 -1.321,-0.108 1.933,5.803 1.309,0.109 z M -2.47,2.035 -3.496,4.031 -4.152,1.896 Z" /></g><g
         transform="translate(410.1992,272.9199)"
         id="g6220"><path
           id="path6222"
           style="fill:#ffffff;fill-opacity:1;fill-rule:evenodd;stroke:none"
           d="M 0,0 -3.176,4.573 -2.147,5.289 0.482,1.498 3.025,3.26 3.568,2.475 Z" /></g><g
         transform="translate(419.5215,281.9219)"
         id="g6224"><path
           id="path6226"
           style="fill:#ffffff;fill-opacity:1;fill-rule:evenodd;stroke:none"
           d="m 0,0 -0.875,-1.029 -1.321,0.425 -1.611,-1.887 0.641,-1.222 -0.858,-1.006 -2.719,5.481 0.854,0.998 z M -3.186,-0.295 -5.322,0.4 -4.285,-1.582 Z" /></g><g
         transform="translate(394.8496,361.0601)"
         id="g6228"><path
           id="path6230"
           style="fill:#ffe000;fill-opacity:1;fill-rule:evenodd;stroke:none"
           d="m 0,0 c 0.355,-0.294 0.791,-0.464 1.254,-0.464 1.082,0 1.965,0.884 1.965,1.968 0,0.274 -0.063,0.543 -0.184,0.805 L 4.143,3.15 C 4.266,2.788 4.328,2.414 4.328,2.029 4.328,0.11 2.77,-1.453 0.849,-1.453 c -0.707,0 -1.374,0.219 -1.951,0.612 z" /></g><g
         transform="translate(358.2046,332.9258)"
         id="g6232"><path
           id="path6234"
           style="fill:#28a740;fill-opacity:1;fill-rule:evenodd;stroke:none"
           d="M 0,0 C 0,0 0,0.011 -0.007,1.991 -1.214,1.694 -2.067,1.004 -2.3,0.083 c -0.125,-0.499 -0.019,-1.054 0.203,-1.685 0.42,-1.181 0.444,-1.991 -0.105,-2.479 -0.546,-0.606 -2.059,-1.178 -4.37,-1.721 -0.2,-0.048 -0.331,-0.067 -0.547,-0.157 0.58,-0.253 1.213,-0.362 2.032,-0.334 0.305,0.007 0.633,0.051 0.982,0.093 1.692,0.337 2.764,0.839 3.275,1.495 0.196,0.242 0.358,0.505 0.445,0.84 0.141,0.557 0.108,1.266 -0.048,2.084 -0.058,0.384 -0.084,0.604 -0.059,0.856 C -0.457,-0.521 -0.31,-0.208 0,0" /></g></g></g></svg>
